<svg version="1.1" xmlns="http://www.w3.org/2000/svg" viewBox="0 0 709.6331970122121 222.89423657570762" width="709.6331970122121" height="222.89423657570762">
  <!-- svg-source:excalidraw -->
  
  <defs>
    <style class="style-fonts">
      @font-face {
        font-family: "Virgil";
        src: url("https://excalidraw.com/Virgil.woff2");
      }
      @font-face {
        font-family: "Cascadia";
        src: url("https://excalidraw.com/Cascadia.woff2");
      }
      @font-face {
        font-family: "Assistant";
        src: url("https://excalidraw.com/Assistant-Regular.woff2");
      }
    </style>
    
  </defs>
  <rect x="0" y="0" width="709.6331970122121" height="222.89423657570762" fill="#fffce8"></rect><g stroke-linecap="round" transform="translate(450.3137288613034 73.94056539019533) rotate(0 74.911630165183 39.342393533286156)"><path d="M0 0 C41.34 0, 82.67 0, 149.82 0 M0 0 C49.41 0, 98.81 0, 149.82 0 M149.82 0 C149.82 24.98, 149.82 49.96, 149.82 78.68 M149.82 0 C149.82 17.65, 149.82 35.29, 149.82 78.68 M149.82 78.68 C101.44 78.68, 53.06 78.68, 0 78.68 M149.82 78.68 C110.73 78.68, 71.64 78.68, 0 78.68 M0 78.68 C0 62.89, 0 47.09, 0 0 M0 78.68 C0 54.14, 0 29.6, 0 0" stroke="#1e1e1e" stroke-width="1" fill="none"></path></g><g stroke-linecap="round" transform="translate(458.3402543496136 95.39533210671283) rotate(0 31.016122746562132 10.675320382786026)"><path d="M0 0 C22.59 0, 45.18 0, 62.03 0 M0 0 C19.42 0, 38.85 0, 62.03 0 M62.03 0 C62.03 7.76, 62.03 15.53, 62.03 21.35 M62.03 0 C62.03 6.1, 62.03 12.2, 62.03 21.35 M62.03 21.35 C47.19 21.35, 32.35 21.35, 0 21.35 M62.03 21.35 C48.2 21.35, 34.37 21.35, 0 21.35 M0 21.35 C0 13.37, 0 5.39, 0 0 M0 21.35 C0 14.19, 0 7.03, 0 0" stroke="#1e1e1e" stroke-width="1" fill="none"></path></g><g transform="translate(465.73058778024733 100.95424051940392) rotate(0 22.25259899152269 4.7007825921295705)"><text x="0" y="0" font-family="Helvetica, Segoe UI Emoji" font-size="8.17527407326884px" fill="#1e1e1e" text-anchor="start" style="white-space: pre;" direction="ltr" dominant-baseline="text-before-edge">HTTP Proxy</text></g><g stroke-linecap="round" transform="translate(458.3402543496136 122.51641953507323) rotate(0 31.01612274656219 10.675320382786055)"><path d="M0 0 C21.42 0, 42.85 0, 62.03 0 M0 0 C24.38 0, 48.75 0, 62.03 0 M62.03 0 C62.03 5.12, 62.03 10.25, 62.03 21.35 M62.03 0 C62.03 7.02, 62.03 14.03, 62.03 21.35 M62.03 21.35 C38.38 21.35, 14.73 21.35, 0 21.35 M62.03 21.35 C37.82 21.35, 13.6 21.35, 0 21.35 M0 21.35 C0 13.33, 0 5.31, 0 0 M0 21.35 C0 13.02, 0 4.69, 0 0" stroke="#1e1e1e" stroke-width="1" fill="none"></path></g><g transform="translate(465.7730186325806 127.00207953614034) rotate(0 18.564275025654695 4.805291423532424)"><text x="18.5642750256547" y="0" font-family="Helvetica, Segoe UI Emoji" font-size="8.357028562665068px" fill="#1e1e1e" text-anchor="middle" style="white-space: pre;" direction="ltr" dominant-baseline="text-before-edge">Kafka API</text></g><g stroke-linecap="round" transform="translate(529.82776561323 122.91788673372321) rotate(0 31.01612274656219 10.675320382786055)"><path d="M0 0 C21.79 0, 43.57 0, 62.03 0 M0 0 C15.46 0, 30.92 0, 62.03 0 M62.03 0 C62.03 8.18, 62.03 16.36, 62.03 21.35 M62.03 0 C62.03 6.49, 62.03 12.99, 62.03 21.35 M62.03 21.35 C45.86 21.35, 29.69 21.35, 0 21.35 M62.03 21.35 C39.18 21.35, 16.33 21.35, 0 21.35 M0 21.35 C0 14.66, 0 7.96, 0 0 M0 21.35 C0 13.76, 0 6.17, 0 0" stroke="#1e1e1e" stroke-width="1" fill="none"></path></g><g transform="translate(547.7831277842464 125.85662018423164) rotate(0 13.611605517466728 8.540715733600592)"><text x="13.61160551746672" y="0" font-family="Helvetica, Segoe UI Emoji" font-size="7.426709333565744px" fill="#1e1e1e" text-anchor="middle" style="white-space: pre;" direction="ltr" dominant-baseline="text-before-edge">Schema</text><text x="13.61160551746672" y="8.540715733600605" font-family="Helvetica, Segoe UI Emoji" font-size="7.426709333565744px" fill="#1e1e1e" text-anchor="middle" style="white-space: pre;" direction="ltr" dominant-baseline="text-before-edge">Registry</text></g><g stroke-linecap="round" transform="translate(529.82776561323 95.80705108846433) rotate(0 31.01612274656219 10.675320382786055)"><path d="M0 0 C19.69 0, 39.39 0, 62.03 0 M0 0 C13.91 0, 27.83 0, 62.03 0 M62.03 0 C62.03 6.89, 62.03 13.79, 62.03 21.35 M62.03 0 C62.03 5.57, 62.03 11.14, 62.03 21.35 M62.03 21.35 C49.58 21.35, 37.12 21.35, 0 21.35 M62.03 21.35 C42.68 21.35, 23.34 21.35, 0 21.35 M0 21.35 C0 14.86, 0 8.36, 0 0 M0 21.35 C0 15.11, 0 8.86, 0 0" stroke="#1e1e1e" stroke-width="1" fill="none"></path></g><g transform="translate(550.7811287081187 100.91186893197488) rotate(0 10.997957071099563 4.848321651517352)"><text x="10.997957071099576" y="0" font-family="Helvetica, Segoe UI Emoji" font-size="8.431863741769307px" fill="#1e1e1e" text-anchor="middle" style="white-space: pre;" direction="ltr" dominant-baseline="text-before-edge">RAFT</text></g><g stroke-linecap="round" transform="translate(261.54526682002916 54.4192147272683) rotate(0 176.5287338519489 58.56401369094718)"><path d="M0 0 C103.25 0, 206.5 0, 353.06 0 M0 0 C122.88 0, 245.77 0, 353.06 0 M353.06 0 C353.06 35.27, 353.06 70.53, 353.06 117.13 M353.06 0 C353.06 39.24, 353.06 78.48, 353.06 117.13 M353.06 117.13 C269.31 117.13, 185.57 117.13, 0 117.13 M353.06 117.13 C260.09 117.13, 167.12 117.13, 0 117.13 M0 117.13 C0 72.93, 0 28.73, 0 0 M0 117.13 C0 76.16, 0 35.19, 0 0" stroke="#1e1e1e" stroke-width="1" fill="none"></path></g><g transform="translate(453.70919345140805 75.0560408688367) rotate(0 25.675487053001177 4.874759969189938)"><text x="25.67548705300118" y="0" font-family="Helvetica, Segoe UI Emoji" font-size="8.477843424678154px" fill="#1e1e1e" text-anchor="middle" style="white-space: pre;" direction="ltr" dominant-baseline="text-before-edge">Control Plane</text></g><g transform="translate(264.49201865621103 56.09242156225798) rotate(0 34.12493391037265 5.3878904340340625)"><text x="34.12493391037266" y="0" font-family="Helvetica, Segoe UI Emoji" font-size="9.370244233102705px" fill="#1e1e1e" text-anchor="middle" style="white-space: pre;" direction="ltr" dominant-baseline="text-before-edge">Redpanda Node</text></g><g stroke-linecap="round" transform="translate(274.20081704498205 75.87184967193531) rotate(0 74.911630165183 39.342393533286156)"><path d="M0 0 C57.41 0, 114.82 0, 149.82 0 M0 0 C45.57 0, 91.15 0, 149.82 0 M149.82 0 C149.82 20.51, 149.82 41.03, 149.82 78.68 M149.82 0 C149.82 28.99, 149.82 57.97, 149.82 78.68 M149.82 78.68 C102.86 78.68, 55.89 78.68, 0 78.68 M149.82 78.68 C96.57 78.68, 43.31 78.68, 0 78.68 M0 78.68 C0 47.94, 0 17.19, 0 0 M0 78.68 C0 51.38, 0 24.07, 0 0" stroke="#1e1e1e" stroke-width="1" fill="none"></path></g><g stroke-linecap="round" transform="translate(283.02573498906804 96.7386978779416) rotate(0 9.451585570080226 23.146725755665557)"><path d="M0 0 C4.23 0, 8.46 0, 18.9 0 M0 0 C7.54 0, 15.08 0, 18.9 0 M18.9 0 C18.9 14.04, 18.9 28.08, 18.9 46.29 M18.9 0 C18.9 10.06, 18.9 20.12, 18.9 46.29 M18.9 46.29 C13.15 46.29, 7.39 46.29, 0 46.29 M18.9 46.29 C11.4 46.29, 3.9 46.29, 0 46.29 M0 46.29 C0 34.66, 0 23.03, 0 0 M0 46.29 C0 34.38, 0 22.47, 0 0" stroke="#1e1e1e" stroke-width="1" fill="none"></path></g><g stroke-linecap="round" transform="translate(307.3297970325168 96.7386978779416) rotate(0 9.451585570080226 23.146725755665557)"><path d="M0 0 C6.1 0, 12.21 0, 18.9 0 M0 0 C4.93 0, 9.86 0, 18.9 0 M18.9 0 C18.9 9.29, 18.9 18.59, 18.9 46.29 M18.9 0 C18.9 14.44, 18.9 28.88, 18.9 46.29 M18.9 46.29 C13.15 46.29, 7.4 46.29, 0 46.29 M18.9 46.29 C13.37 46.29, 7.85 46.29, 0 46.29 M0 46.29 C0 34.44, 0 22.6, 0 0 M0 46.29 C0 30.75, 0 15.2, 0 0" stroke="#1e1e1e" stroke-width="1" fill="none"></path></g><g stroke-linecap="round" transform="translate(352.65880752387864 96.7386978779416) rotate(0 9.451585570080226 23.146725755665557)"><path d="M0 0 C4.52 0, 9.04 0, 18.9 0 M0 0 C4.21 0, 8.43 0, 18.9 0 M18.9 0 C18.9 17.3, 18.9 34.6, 18.9 46.29 M18.9 0 C18.9 15.52, 18.9 31.04, 18.9 46.29 M18.9 46.29 C11.92 46.29, 4.93 46.29, 0 46.29 M18.9 46.29 C13.21 46.29, 7.52 46.29, 0 46.29 M0 46.29 C0 33.63, 0 20.96, 0 0 M0 46.29 C0 35.08, 0 23.87, 0 0" stroke="#1e1e1e" stroke-width="1" fill="none"></path></g><g stroke-linecap="round" transform="translate(330.86229566426005 96.7386978779416) rotate(0 9.451585570080226 23.146725755665557)"><path d="M0 0 C5.69 0, 11.38 0, 18.9 0 M0 0 C6.33 0, 12.67 0, 18.9 0 M18.9 0 C18.9 10.98, 18.9 21.96, 18.9 46.29 M18.9 0 C18.9 12.19, 18.9 24.38, 18.9 46.29 M18.9 46.29 C11.77 46.29, 4.64 46.29, 0 46.29 M18.9 46.29 C12.29 46.29, 5.68 46.29, 0 46.29 M0 46.29 C0 36.21, 0 26.14, 0 0 M0 46.29 C0 33.37, 0 20.45, 0 0" stroke="#1e1e1e" stroke-width="1" fill="none"></path></g><g transform="translate(279.1457832363808 78.12366545630988) rotate(0 20.96621304574336 4.874759969189938)"><text x="20.966213045743356" y="0" font-family="Helvetica, Segoe UI Emoji" font-size="8.477843424678154px" fill="#1e1e1e" text-anchor="middle" style="white-space: pre;" direction="ltr" dominant-baseline="text-before-edge">Data Plane</text></g><g stroke-linecap="round" transform="translate(375.0781623413111 96.7386978779416) rotate(0 9.451585570080226 23.146725755665557)"><path d="M0 0 C5.15 0, 10.29 0, 18.9 0 M0 0 C6.62 0, 13.24 0, 18.9 0 M18.9 0 C18.9 14.73, 18.9 29.46, 18.9 46.29 M18.9 0 C18.9 16.32, 18.9 32.64, 18.9 46.29 M18.9 46.29 C13.71 46.29, 8.51 46.29, 0 46.29 M18.9 46.29 C12.03 46.29, 5.16 46.29, 0 46.29 M0 46.29 C0 36.49, 0 26.69, 0 0 M0 46.29 C0 31.51, 0 16.72, 0 0" stroke="#1e1e1e" stroke-width="1" fill="none"></path></g><g stroke-linecap="round" transform="translate(397.10937432050116 96.7386978779416) rotate(0 9.451585570080226 23.146725755665557)"><path d="M0 0 C4.93 0, 9.86 0, 18.9 0 M0 0 C6.96 0, 13.93 0, 18.9 0 M18.9 0 C18.9 14.51, 18.9 29.03, 18.9 46.29 M18.9 0 C18.9 16.46, 18.9 32.91, 18.9 46.29 M18.9 46.29 C11.52 46.29, 4.13 46.29, 0 46.29 M18.9 46.29 C12.34 46.29, 5.78 46.29, 0 46.29 M0 46.29 C0 33.04, 0 19.79, 0 0 M0 46.29 C0 29.27, 0 12.25, 0 0" stroke="#1e1e1e" stroke-width="1" fill="none"></path></g><g transform="translate(277.5382319435116 113.88746133133196) rotate(269.11858886614164 15.334995280923636 5.568972576772666)"><text x="15.33499528092365" y="0" font-family="Helvetica, Segoe UI Emoji" font-size="9.685169698735073px" fill="#1e1e1e" text-anchor="middle" style="white-space: pre;" direction="ltr" dominant-baseline="text-before-edge">Topic 1</text></g><g transform="translate(299.84301782809086 113.34413135854356) rotate(269.11858886614164 15.334995280923636 5.568972576772666)"><text x="15.33499528092365" y="0" font-family="Helvetica, Segoe UI Emoji" font-size="9.685169698735073px" fill="#1e1e1e" text-anchor="middle" style="white-space: pre;" direction="ltr" dominant-baseline="text-before-edge">Topic 2</text></g><g transform="translate(320.35103558801734 114.45964513501889) rotate(269.11858886614164 15.334995280923636 5.568972576772666)"><text x="15.33499528092365" y="0" font-family="Helvetica, Segoe UI Emoji" font-size="9.685169698735073px" fill="#1e1e1e" text-anchor="middle" style="white-space: pre;" direction="ltr" dominant-baseline="text-before-edge">Topic 3</text></g><g transform="translate(343.13845744819196 114.45964513501889) rotate(269.11858886614164 15.334995280923636 5.568972576772666)"><text x="15.33499528092365" y="0" font-family="Helvetica, Segoe UI Emoji" font-size="9.685169698735073px" fill="#1e1e1e" text-anchor="middle" style="white-space: pre;" direction="ltr" dominant-baseline="text-before-edge">Topic 4</text></g><g transform="translate(366.3916575653129 114.73852996211008) rotate(269.11858886614164 15.334995280923636 5.568972576772666)"><text x="15.33499528092365" y="0" font-family="Helvetica, Segoe UI Emoji" font-size="9.685169698735073px" fill="#1e1e1e" text-anchor="middle" style="white-space: pre;" direction="ltr" dominant-baseline="text-before-edge">Topic 5</text></g><g transform="translate(390.5812971701596 114.73852996211008) rotate(269.11858886614164 16.6749471305057 5.568972576772666)"><text x="16.67494713050572" y="0" font-family="Helvetica, Segoe UI Emoji" font-size="9.685169698735073px" fill="#1e1e1e" text-anchor="middle" style="white-space: pre;" direction="ltr" dominant-baseline="text-before-edge">Topic m</text></g><g stroke-linecap="round" transform="translate(261.930254865366 180.72935317204758) rotate(0 176.70148992890506 11.8801310812552)"><path d="M0 0 C98.05 0, 196.1 0, 353.4 0 M0 0 C83.95 0, 167.89 0, 353.4 0 M353.4 0 C353.4 6.84, 353.4 13.67, 353.4 23.76 M353.4 0 C353.4 5.28, 353.4 10.56, 353.4 23.76 M353.4 23.76 C276.05 23.76, 198.69 23.76, 0 23.76 M353.4 23.76 C279.28 23.76, 205.17 23.76, 0 23.76 M0 23.76 C0 17.07, 0 10.39, 0 0 M0 23.76 C0 18.96, 0 14.15, 0 0" stroke="#1e1e1e" stroke-width="1" fill="none"></path></g><g stroke-linecap="round" transform="translate(622.1089396888055 17.328656127273746) rotate(0 38.76212866170329 14.858808429405485)"><path d="M0 0 C19.73 0, 39.45 0, 77.52 0 M0 0 C22.24 0, 44.48 0, 77.52 0 M77.52 0 C77.52 8.55, 77.52 17.1, 77.52 29.72 M77.52 0 C77.52 10.44, 77.52 20.88, 77.52 29.72 M77.52 29.72 C57.38 29.72, 37.23 29.72, 0 29.72 M77.52 29.72 C57.02 29.72, 36.51 29.72, 0 29.72 M0 29.72 C0 20.51, 0 11.3, 0 0 M0 29.72 C0 18.4, 0 7.09, 0 0" stroke="#1e1e1e" stroke-width="1" fill="none"></path></g><g transform="translate(630.4257831871766 22.496917604682267) rotate(0 30.445285163332358 10.164283060007463)"><text x="30.44528516333234" y="0" font-family="Helvetica, Segoe UI Emoji" font-size="8.838507008702143px" fill="#1e1e1e" text-anchor="middle" style="white-space: pre;" direction="ltr" dominant-baseline="text-before-edge">thread-per-core</text><text x="30.44528516333234" y="10.164283060007463" font-family="Helvetica, Segoe UI Emoji" font-size="8.838507008702143px" fill="#1e1e1e" text-anchor="middle" style="white-space: pre;" direction="ltr" dominant-baseline="text-before-edge">model </text></g><g stroke-linecap="round" transform="translate(622.1089396888055 54.4161934355983) rotate(0 38.76212866170329 14.858808429405485)"><path d="M0 0 C19.13 0, 38.27 0, 77.52 0 M0 0 C16.74 0, 33.48 0, 77.52 0 M77.52 0 C77.52 6.67, 77.52 13.35, 77.52 29.72 M77.52 0 C77.52 10.98, 77.52 21.96, 77.52 29.72 M77.52 29.72 C59.96 29.72, 42.4 29.72, 0 29.72 M77.52 29.72 C50.86 29.72, 24.19 29.72, 0 29.72 M0 29.72 C0 19.28, 0 8.84, 0 0 M0 29.72 C0 18.29, 0 6.86, 0 0" stroke="#1e1e1e" stroke-width="1" fill="none"></path></g><g transform="translate(629.4422323921498 59.15377138541322) rotate(0 31.42883595835923 10.164283060007477)"><text x="31.42883595835924" y="0" font-family="Helvetica, Segoe UI Emoji" font-size="8.838507008702143px" fill="#1e1e1e" text-anchor="middle" style="white-space: pre;" direction="ltr" dominant-baseline="text-before-edge">Raft Consensus</text><text x="31.42883595835924" y="10.164283060007463" font-family="Helvetica, Segoe UI Emoji" font-size="8.838507008702143px" fill="#1e1e1e" text-anchor="middle" style="white-space: pre;" direction="ltr" dominant-baseline="text-before-edge">Protocol</text></g><g stroke-linecap="round" transform="translate(622.1089396888055 93.02386331851966) rotate(0 38.76212866170329 14.858808429405485)"><path d="M0 0 C24.17 0, 48.33 0, 77.52 0 M0 0 C20.87 0, 41.73 0, 77.52 0 M77.52 0 C77.52 10.74, 77.52 21.48, 77.52 29.72 M77.52 0 C77.52 11.56, 77.52 23.12, 77.52 29.72 M77.52 29.72 C59.86 29.72, 42.19 29.72, 0 29.72 M77.52 29.72 C47.08 29.72, 16.63 29.72, 0 29.72 M0 29.72 C0 23.44, 0 17.16, 0 0 M0 29.72 C0 20.84, 0 11.96, 0 0" stroke="#1e1e1e" stroke-width="1" fill="none"></path></g><g transform="translate(634.8432210154231 98.19212479592835) rotate(0 26.02784733508588 10.164283060007449)"><text x="26.027847335085887" y="0" font-family="Helvetica, Segoe UI Emoji" font-size="8.838507008702143px" fill="#1e1e1e" text-anchor="middle" style="white-space: pre;" direction="ltr" dominant-baseline="text-before-edge">Single Binary</text><text x="26.027847335085887" y="10.164283060007463" font-family="Helvetica, Segoe UI Emoji" font-size="8.838507008702143px" fill="#1e1e1e" text-anchor="middle" style="white-space: pre;" direction="ltr" dominant-baseline="text-before-edge">Architecture</text></g><g stroke-linecap="round" transform="translate(622.1089396888055 132.6204401557133) rotate(0 38.76212866170329 14.858808429405485)"><path d="M0 0 C16.51 0, 33.01 0, 77.52 0 M0 0 C26.3 0, 52.59 0, 77.52 0 M77.52 0 C77.52 8.07, 77.52 16.14, 77.52 29.72 M77.52 0 C77.52 8.79, 77.52 17.59, 77.52 29.72 M77.52 29.72 C57.63 29.72, 37.73 29.72, 0 29.72 M77.52 29.72 C57.97 29.72, 38.42 29.72, 0 29.72 M0 29.72 C0 20.46, 0 11.21, 0 0 M0 29.72 C0 20.92, 0 12.12, 0 0" stroke="#1e1e1e" stroke-width="1" fill="none"></path></g><g transform="translate(632.8739310304844 132.60345197442) rotate(0 27.997137320024876 15.246424590011202)"><text x="27.997137320024887" y="0" font-family="Helvetica, Segoe UI Emoji" font-size="8.838507008702143px" fill="#1e1e1e" text-anchor="middle" style="white-space: pre;" direction="ltr" dominant-baseline="text-before-edge">Authentication</text><text x="27.997137320024887" y="10.164283060007463" font-family="Helvetica, Segoe UI Emoji" font-size="8.838507008702143px" fill="#1e1e1e" text-anchor="middle" style="white-space: pre;" direction="ltr" dominant-baseline="text-before-edge">&amp;</text><text x="27.997137320024887" y="20.328566120014926" font-family="Helvetica, Segoe UI Emoji" font-size="8.838507008702143px" fill="#1e1e1e" text-anchor="middle" style="white-space: pre;" direction="ltr" dominant-baseline="text-before-edge">Authorization</text></g><g transform="translate(403.1969611318299 187.63281953202574) rotate(0 31.251638915520346 5.3878904340340625)"><text x="31.25163891552034" y="0" font-family="Helvetica, Segoe UI Emoji" font-size="9.370244233102705px" fill="#1e1e1e" text-anchor="middle" style="white-space: pre;" direction="ltr" dominant-baseline="text-before-edge">Object Storage</text></g><g transform="translate(300.0744261069832 21.70141549281388) rotate(0 40.11401301893642 5.387890434034048)"><text x="40.11401301893644" y="0" font-family="Helvetica, Segoe UI Emoji" font-size="9.370244233102705px" fill="#1e1e1e" text-anchor="middle" style="white-space: pre;" direction="ltr" dominant-baseline="text-before-edge">Redpanda Console</text></g><g stroke-linecap="round" transform="translate(263.045743109952 16.603573449159228) rotate(0 83.83567654726232 12.159003142401701)"><path d="M0 0 C37.18 0, 74.37 0, 167.67 0 M0 0 C44.83 0, 89.67 0, 167.67 0 M167.67 0 C167.67 6.89, 167.67 13.79, 167.67 24.32 M167.67 0 C167.67 5.61, 167.67 11.23, 167.67 24.32 M167.67 24.32 C123.21 24.32, 78.75 24.32, 0 24.32 M167.67 24.32 C131.61 24.32, 95.55 24.32, 0 24.32 M0 24.32 C0 15.82, 0 7.32, 0 0 M0 24.32 C0 18.71, 0 13.1, 0 0" stroke="#1e1e1e" stroke-width="1" fill="none"></path></g><g transform="translate(479.8004163314779 21.143684136465538) rotate(0 38.032244890976585 5.387890434034048)"><text x="38.032244890976614" y="0" font-family="Helvetica, Segoe UI Emoji" font-size="9.370244233102705px" fill="#1e1e1e" text-anchor="middle" style="white-space: pre;" direction="ltr" dominant-baseline="text-before-edge">Redpanda Keeper</text></g><g stroke-linecap="round" transform="translate(443.7576472407111 16.603573449159228) rotate(0 83.83567654726232 12.159003142401701)"><path d="M0 0 C37.43 0, 74.85 0, 167.67 0 M0 0 C48.48 0, 96.96 0, 167.67 0 M167.67 0 C167.67 6.38, 167.67 12.77, 167.67 24.32 M167.67 0 C167.67 7.27, 167.67 14.54, 167.67 24.32 M167.67 24.32 C132.98 24.32, 98.29 24.32, 0 24.32 M167.67 24.32 C117.33 24.32, 66.99 24.32, 0 24.32 M0 24.32 C0 16.2, 0 8.09, 0 0 M0 24.32 C0 17.11, 0 9.89, 0 0" stroke="#1e1e1e" stroke-width="1" fill="none"></path></g><g stroke-linecap="round" transform="translate(10 24.373838137178524) rotate(0 109.87727081344497 94.26019921926455)"><path d="M219.75 94.26 C219.75 97.16, 219.6 100.07, 219.29 102.96 C218.97 105.84, 218.5 108.73, 217.88 111.58 C217.26 114.43, 216.48 117.27, 215.56 120.06 C214.64 122.84, 213.56 125.61, 212.33 128.31 C211.11 131.01, 209.74 133.68, 208.24 136.28 C206.73 138.87, 205.08 141.42, 203.3 143.88 C201.52 146.35, 199.6 148.75, 197.56 151.06 C195.52 153.38, 193.35 155.62, 191.08 157.76 C188.8 159.91, 186.4 161.97, 183.9 163.92 C181.4 165.87, 178.79 167.73, 176.09 169.48 C173.4 171.23, 170.59 172.88, 167.72 174.4 C164.85 175.93, 161.88 177.35, 158.85 178.64 C155.83 179.93, 152.72 181.11, 149.57 182.16 C146.42 183.2, 143.2 184.13, 139.95 184.92 C136.7 185.72, 133.39 186.38, 130.07 186.92 C126.75 187.45, 123.38 187.85, 120.02 188.12 C116.65 188.39, 113.26 188.52, 109.88 188.52 C106.5 188.52, 103.1 188.39, 99.74 188.12 C96.37 187.85, 93.01 187.45, 89.69 186.92 C86.37 186.38, 83.06 185.72, 79.81 184.92 C76.56 184.13, 73.34 183.2, 70.19 182.16 C67.03 181.11, 63.93 179.93, 60.9 178.64 C57.88 177.35, 54.91 175.93, 52.03 174.4 C49.16 172.88, 46.36 171.23, 43.66 169.48 C40.96 167.73, 38.35 165.87, 35.85 163.92 C33.36 161.97, 30.95 159.91, 28.68 157.76 C26.4 155.62, 24.23 153.38, 22.19 151.06 C20.16 148.75, 18.24 146.35, 16.46 143.88 C14.68 141.42, 13.03 138.87, 11.52 136.28 C10.01 133.68, 8.64 131.01, 7.42 128.31 C6.2 125.61, 5.12 122.84, 4.19 120.06 C3.27 117.27, 2.49 114.43, 1.87 111.58 C1.25 108.73, 0.78 105.84, 0.47 102.96 C0.16 100.07, 0 97.16, 0 94.26 C0 91.36, 0.16 88.45, 0.47 85.56 C0.78 82.68, 1.25 79.79, 1.87 76.94 C2.49 74.09, 3.27 71.25, 4.19 68.46 C5.12 65.68, 6.2 62.91, 7.42 60.21 C8.64 57.51, 10.01 54.84, 11.52 52.24 C13.03 49.65, 14.68 47.1, 16.46 44.64 C18.24 42.17, 20.16 39.77, 22.19 37.46 C24.23 35.14, 26.4 32.9, 28.68 30.76 C30.95 28.62, 33.36 26.55, 35.85 24.6 C38.35 22.65, 40.96 20.79, 43.66 19.04 C46.36 17.29, 49.16 15.64, 52.03 14.12 C54.91 12.59, 57.88 11.17, 60.9 9.88 C63.93 8.59, 67.03 7.41, 70.19 6.37 C73.34 5.32, 76.56 4.39, 79.81 3.6 C83.06 2.8, 86.37 2.14, 89.69 1.6 C93.01 1.07, 96.37 0.67, 99.74 0.4 C103.1 0.13, 106.5 0, 109.88 0 C113.26 0, 116.65 0.13, 120.02 0.4 C123.38 0.67, 126.75 1.07, 130.07 1.6 C133.39 2.14, 136.7 2.8, 139.95 3.6 C143.2 4.39, 146.42 5.32, 149.57 6.37 C152.72 7.41, 155.83 8.59, 158.85 9.88 C161.88 11.17, 164.85 12.59, 167.72 14.12 C170.59 15.64, 173.4 17.29, 176.09 19.04 C178.79 20.79, 181.4 22.65, 183.9 24.6 C186.4 26.55, 188.8 28.62, 191.08 30.76 C193.35 32.9, 195.52 35.14, 197.56 37.46 C199.6 39.77, 201.52 42.17, 203.3 44.64 C205.08 47.1, 206.73 49.65, 208.24 52.24 C209.74 54.84, 211.11 57.51, 212.33 60.21 C213.56 62.91, 214.64 65.68, 215.56 68.46 C216.48 71.25, 217.26 74.09, 217.88 76.94 C218.5 79.79, 218.97 82.68, 219.29 85.56 C219.6 88.45, 219.68 92.81, 219.75 94.26 C219.83 95.71, 219.83 92.81, 219.75 94.26" stroke="#1e1e1e" stroke-width="2.5" fill="none" stroke-dasharray="8 10"></path></g><g stroke-linecap="round" transform="translate(41.23414318836075 65.9263752474065) rotate(0 34.58067175184209 20.357979612311226)"><path d="M0 0 C21.39 0, 42.78 0, 69.16 0 M0 0 C18.63 0, 37.26 0, 69.16 0 M69.16 0 C69.16 10.23, 69.16 20.45, 69.16 40.72 M69.16 0 C69.16 10.66, 69.16 21.32, 69.16 40.72 M69.16 40.72 C49.42 40.72, 29.68 40.72, 0 40.72 M69.16 40.72 C50.25 40.72, 31.34 40.72, 0 40.72 M0 40.72 C0 27.41, 0 14.11, 0 0 M0 40.72 C0 29.75, 0 18.78, 0 0" stroke="#1e1e1e" stroke-width="1" fill="none"></path></g><g transform="translate(53.91302410799835 76.4344348516716) rotate(0 21.62290600511335 10.775780868068097)"><text x="21.622906005113336" y="0" font-family="Helvetica, Segoe UI Emoji" font-size="9.370244233102705px" fill="#1e1e1e" text-anchor="middle" style="white-space: pre;" direction="ltr" dominant-baseline="text-before-edge">Redpanda</text><text x="21.622906005113336" y="10.775780868068109" font-family="Helvetica, Segoe UI Emoji" font-size="9.370244233102705px" fill="#1e1e1e" text-anchor="middle" style="white-space: pre;" direction="ltr" dominant-baseline="text-before-edge">Node</text></g><g stroke-linecap="round" transform="translate(128.52241321951612 65.3686311251135) rotate(0 34.58067175184209 20.357979612311226)"><path d="M0 0 C26.96 0, 53.91 0, 69.16 0 M0 0 C19.15 0, 38.29 0, 69.16 0 M69.16 0 C69.16 12.01, 69.16 24.02, 69.16 40.72 M69.16 0 C69.16 13.47, 69.16 26.95, 69.16 40.72 M69.16 40.72 C52.27 40.72, 35.39 40.72, 0 40.72 M69.16 40.72 C48.08 40.72, 27.01 40.72, 0 40.72 M0 40.72 C0 28.05, 0 15.39, 0 0 M0 40.72 C0 30.59, 0 20.45, 0 0" stroke="#1e1e1e" stroke-width="1" fill="none"></path></g><g transform="translate(141.20129413915373 75.8766907293786) rotate(0 21.62290600511332 10.775780868068097)"><text x="21.622906005113336" y="0" font-family="Helvetica, Segoe UI Emoji" font-size="9.370244233102705px" fill="#1e1e1e" text-anchor="middle" style="white-space: pre;" direction="ltr" dominant-baseline="text-before-edge">Redpanda</text><text x="21.622906005113336" y="10.775780868068109" font-family="Helvetica, Segoe UI Emoji" font-size="9.370244233102705px" fill="#1e1e1e" text-anchor="middle" style="white-space: pre;" direction="ltr" dominant-baseline="text-before-edge">Node</text></g><g stroke-linecap="round" transform="translate(42.07074660585556 128.394661624128) rotate(0 34.58067175184209 20.357979612311226)"><path d="M0 0 C19.15 0, 38.29 0, 69.16 0 M0 0 C20.4 0, 40.79 0, 69.16 0 M69.16 0 C69.16 13.47, 69.16 26.95, 69.16 40.72 M69.16 0 C69.16 9.94, 69.16 19.88, 69.16 40.72 M69.16 40.72 C48.08 40.72, 27.01 40.72, 0 40.72 M69.16 40.72 C47.65 40.72, 26.15 40.72, 0 40.72 M0 40.72 C0 30.59, 0 20.45, 0 0 M0 40.72 C0 26.48, 0 12.24, 0 0" stroke="#1e1e1e" stroke-width="1" fill="none"></path></g><g transform="translate(54.74962752549317 138.9027212283931) rotate(0 21.62290600511332 10.775780868068097)"><text x="21.622906005113336" y="0" font-family="Helvetica, Segoe UI Emoji" font-size="9.370244233102705px" fill="#1e1e1e" text-anchor="middle" style="white-space: pre;" direction="ltr" dominant-baseline="text-before-edge">Redpanda</text><text x="21.622906005113336" y="10.775780868068109" font-family="Helvetica, Segoe UI Emoji" font-size="9.370244233102705px" fill="#1e1e1e" text-anchor="middle" style="white-space: pre;" direction="ltr" dominant-baseline="text-before-edge">Node</text></g><g stroke-linecap="round" transform="translate(129.6379269959915 127.83691750183499) rotate(0 34.58067175184209 20.357979612311226)"><path d="M0 0 C25.93 0, 51.86 0, 69.16 0 M0 0 C16.36 0, 32.71 0, 69.16 0 M69.16 0 C69.16 15.21, 69.16 30.42, 69.16 40.72 M69.16 0 C69.16 9.98, 69.16 19.95, 69.16 40.72 M69.16 40.72 C52.91 40.72, 36.66 40.72, 0 40.72 M69.16 40.72 C47.54 40.72, 25.91 40.72, 0 40.72 M0 40.72 C0 30.6, 0 20.49, 0 0 M0 40.72 C0 28.6, 0 16.48, 0 0" stroke="#1e1e1e" stroke-width="1" fill="none"></path></g><g transform="translate(142.31680791562906 138.3449771061001) rotate(0 21.62290600511335 10.775780868068097)"><text x="21.622906005113336" y="0" font-family="Helvetica, Segoe UI Emoji" font-size="9.370244233102705px" fill="#1e1e1e" text-anchor="middle" style="white-space: pre;" direction="ltr" dominant-baseline="text-before-edge">Redpanda</text><text x="21.622906005113336" y="10.775780868068109" font-family="Helvetica, Segoe UI Emoji" font-size="9.370244233102705px" fill="#1e1e1e" text-anchor="middle" style="white-space: pre;" direction="ltr" dominant-baseline="text-before-edge">Node</text></g><g stroke-linecap="round"><g transform="translate(196.28938365152317 88.51535688077905) rotate(0 32.907401087129074 2.2310147870060177)"><path d="M0 0 C15.31 0.46, 34.6 3.15, 65.81 4.46" stroke="#1e1e1e" stroke-width="1.5" fill="none" stroke-dasharray="8 9"></path></g><g transform="translate(196.28938365152317 88.51535688077905) rotate(0 32.907401087129074 2.2310147870060177)"><path d="M41.87 11.64 C46.2 9.44, 54.47 9.06, 65.81 4.46" stroke="#1e1e1e" stroke-width="1.5" fill="none"></path></g><g transform="translate(196.28938365152317 88.51535688077905) rotate(0 32.907401087129074 2.2310147870060177)"><path d="M42.86 -5.43 C46.86 -3.13, 54.87 0.99, 65.81 4.46" stroke="#1e1e1e" stroke-width="1.5" fill="none"></path></g></g><mask></mask><g transform="translate(76.1587970754785 10) rotate(0 44.60386201276535 6.36364282847498)"><text x="44.60386201276535" y="0" font-family="Helvetica, Segoe UI Emoji" font-size="11.067204919086917px" fill="#1e1e1e" text-anchor="middle" style="white-space: pre;" direction="ltr" dominant-baseline="text-before-edge">Redpanda Cluster</text></g><g stroke-linecap="round" transform="translate(622.1089396888055 174.3465606734918) rotate(0 38.76212866170329 14.858808429405485)"><path d="M0 0 C20.66 0, 41.31 0, 77.52 0 M0 0 C26.14 0, 52.28 0, 77.52 0 M77.52 0 C77.52 7.58, 77.52 15.17, 77.52 29.72 M77.52 0 C77.52 9.77, 77.52 19.53, 77.52 29.72 M77.52 29.72 C59.56 29.72, 41.6 29.72, 0 29.72 M77.52 29.72 C51.33 29.72, 25.14 29.72, 0 29.72 M0 29.72 C0 22.18, 0 14.63, 0 0 M0 29.72 C0 23.54, 0 17.37, 0 0" stroke="#1e1e1e" stroke-width="1" fill="none"></path></g><g transform="translate(623.305722745632 176.9550854843477) rotate(0 37.56534560487728 10.164283060007449)"><text x="37.565345604877265" y="0" font-family="Helvetica, Segoe UI Emoji" font-size="8.838507008702143px" fill="#1e1e1e" text-anchor="middle" style="white-space: pre;" direction="ltr" dominant-baseline="text-before-edge">Native Prometheus</text><text x="37.565345604877265" y="10.164283060007463" font-family="Helvetica, Segoe UI Emoji" font-size="8.838507008702143px" fill="#1e1e1e" text-anchor="middle" style="white-space: pre;" direction="ltr" dominant-baseline="text-before-edge">Integration</text></g></svg>