<svg version="1.1" xmlns="http://www.w3.org/2000/svg" viewBox="0 0 664.7343372366682 213.16942620880752" width="664.7343372366682" height="213.16942620880752">
  <!-- svg-source:excalidraw -->
  
  <defs>
    <style class="style-fonts">
      @font-face {
        font-family: "Virgil";
        src: url("https://excalidraw.com/Virgil.woff2");
      }
      @font-face {
        font-family: "Cascadia";
        src: url("https://excalidraw.com/Cascadia.woff2");
      }
      @font-face {
        font-family: "Assistant";
        src: url("https://excalidraw.com/Assistant-Regular.woff2");
      }
    </style>
    
  </defs>
  <rect x="0" y="0" width="664.7343372366682" height="213.16942620880752" fill="#fffce8"></rect><g stroke-linecap="round" transform="translate(196.43230276560257 14.760581855122695) rotate(0 19.33988677043382 93.42651254529262)"><path d="M0 0 C13.43 0, 26.86 0, 38.68 0 M0 0 C12.32 0, 24.64 0, 38.68 0 M38.68 0 C38.68 43.74, 38.68 87.47, 38.68 186.85 M38.68 0 C38.68 56.65, 38.68 113.3, 38.68 186.85 M38.68 186.85 C23.95 186.85, 9.22 186.85, 0 186.85 M38.68 186.85 C24.4 186.85, 10.12 186.85, 0 186.85 M0 186.85 C0 117.53, 0 48.2, 0 0 M0 186.85 C0 127.44, 0 68.02, 0 0" stroke="#1e1e1e" stroke-width="1" fill="none"></path></g><g stroke-linecap="round"><g transform="translate(243.48276380347386 82.92923580298759) rotate(0 20.614280367972185 -0.575269682615243)"><path d="M0 0 C8.88 -0.25, 17.76 -0.5, 41.23 -1.15 M0 0 C15.02 -0.42, 30.04 -0.84, 41.23 -1.15" stroke="#1e1e1e" stroke-width="1" fill="none"></path></g><g transform="translate(243.48276380347386 82.92923580298759) rotate(0 20.614280367972185 -0.575269682615243)"><path d="M22.05 6.44 C26.18 4.81, 30.31 3.17, 41.23 -1.15 M22.05 6.44 C29.04 3.68, 36.02 0.91, 41.23 -1.15" stroke="#1e1e1e" stroke-width="1" fill="none"></path></g><g transform="translate(243.48276380347386 82.92923580298759) rotate(0 20.614280367972185 -0.575269682615243)"><path d="M21.66 -7.66 C25.87 -6.26, 30.09 -4.86, 41.23 -1.15 M21.66 -7.66 C28.79 -5.29, 35.92 -2.92, 41.23 -1.15" stroke="#1e1e1e" stroke-width="1" fill="none"></path></g></g><mask></mask><g stroke-linecap="round"><g transform="translate(243.48276380347386 104.64213322914316) rotate(0 20.614280367972185 -0.6665474200457311)"><path d="M0 0 C8.65 -0.28, 17.29 -0.56, 41.23 -1.33 M0 0 C13.35 -0.43, 26.7 -0.86, 41.23 -1.33" stroke="#1e1e1e" stroke-width="1" fill="none"></path></g><g transform="translate(243.48276380347386 104.64213322914316) rotate(0 20.614280367972185 -0.6665474200457311)"><path d="M22.09 6.34 C26.1 4.73, 30.12 3.12, 41.23 -1.33 M22.09 6.34 C28.28 3.86, 34.48 1.37, 41.23 -1.33" stroke="#1e1e1e" stroke-width="1" fill="none"></path></g><g transform="translate(243.48276380347386 104.64213322914316) rotate(0 20.614280367972185 -0.6665474200457311)"><path d="M21.63 -7.76 C25.74 -6.41, 29.85 -5.06, 41.23 -1.33 M21.63 -7.76 C27.98 -5.68, 34.32 -3.6, 41.23 -1.33" stroke="#1e1e1e" stroke-width="1" fill="none"></path></g></g><mask></mask><g stroke-linecap="round"><g transform="translate(243.48276380347386 127.46250218056429) rotate(0 20.284385136161404 -0.7353595562440773)"><path d="M0 0 C10.92 -0.4, 21.85 -0.79, 40.57 -1.47 M0 0 C11.78 -0.43, 23.56 -0.85, 40.57 -1.47" stroke="#1e1e1e" stroke-width="1" fill="none"></path></g><g transform="translate(243.48276380347386 127.46250218056429) rotate(0 20.284385136161404 -0.7353595562440773)"><path d="M21.76 6.16 C26.82 4.1, 31.89 2.05, 40.57 -1.47 M21.76 6.16 C27.22 3.94, 32.68 1.73, 40.57 -1.47" stroke="#1e1e1e" stroke-width="1" fill="none"></path></g><g transform="translate(243.48276380347386 127.46250218056429) rotate(0 20.284385136161404 -0.7353595562440773)"><path d="M21.26 -7.72 C26.46 -6.04, 31.66 -4.35, 40.57 -1.47 M21.26 -7.72 C26.86 -5.9, 32.47 -4.09, 40.57 -1.47" stroke="#1e1e1e" stroke-width="1" fill="none"></path></g></g><mask></mask><g stroke-linecap="round"><g transform="translate(243.48276380347374 145.27186406194846) rotate(0 20.28438513616146 -0.7979538722490247)"><path d="M0 0 C12.81 -0.5, 25.63 -1.01, 40.57 -1.6 M0 0 C13.92 -0.55, 27.84 -1.1, 40.57 -1.6" stroke="#1e1e1e" stroke-width="1" fill="none"></path></g><g transform="translate(243.48276380347374 145.27186406194846) rotate(0 20.28438513616146 -0.7979538722490247)"><path d="M21.78 6.09 C27.72 3.66, 33.65 1.24, 40.57 -1.6 M21.78 6.09 C28.23 3.45, 34.67 0.82, 40.57 -1.6" stroke="#1e1e1e" stroke-width="1" fill="none"></path></g><g transform="translate(243.48276380347374 145.27186406194846) rotate(0 20.28438513616146 -0.7979538722490247)"><path d="M21.23 -7.78 C27.34 -5.83, 33.45 -3.87, 40.57 -1.6 M21.23 -7.78 C27.87 -5.66, 34.5 -3.54, 40.57 -1.6" stroke="#1e1e1e" stroke-width="1" fill="none"></path></g></g><mask></mask><g stroke-linecap="round"><g transform="translate(137.1217459791833 82.3185677976721) rotate(0 20.591662691770836 0.7268697051874682)"><path d="M0 0 C16.16 0.57, 32.31 1.14, 41.18 1.45 M0 0 C8.6 0.3, 17.21 0.61, 41.18 1.45" stroke="#1e1e1e" stroke-width="1" fill="none"></path></g><g transform="translate(137.1217459791833 82.3185677976721) rotate(0 20.591662691770836 0.7268697051874682)"><path d="M21.58 7.81 C29.27 5.32, 36.96 2.82, 41.18 1.45 M21.58 7.81 C25.68 6.48, 29.77 5.16, 41.18 1.45" stroke="#1e1e1e" stroke-width="1" fill="none"></path></g><g transform="translate(137.1217459791833 82.3185677976721) rotate(0 20.591662691770836 0.7268697051874682)"><path d="M22.08 -6.27 C29.58 -3.24, 37.07 -0.21, 41.18 1.45 M22.08 -6.27 C26.07 -4.66, 30.06 -3.04, 41.18 1.45" stroke="#1e1e1e" stroke-width="1" fill="none"></path></g></g><mask></mask><g stroke-linecap="round"><g transform="translate(137.95647704617988 101.61884267276008) rotate(0 20.174439110679344 0.33101721652300853)"><path d="M0 0 C16.12 0.26, 32.24 0.53, 40.35 0.66 M0 0 C13.13 0.22, 26.26 0.43, 40.35 0.66" stroke="#1e1e1e" stroke-width="1" fill="none"></path></g><g transform="translate(137.95647704617988 101.61884267276008) rotate(0 20.174439110679344 0.33101721652300853)"><path d="M21.28 7.25 C28.9 4.62, 36.52 1.99, 40.35 0.66 M21.28 7.25 C27.48 5.11, 33.69 2.96, 40.35 0.66" stroke="#1e1e1e" stroke-width="1" fill="none"></path></g><g transform="translate(137.95647704617988 101.61884267276008) rotate(0 20.174439110679344 0.33101721652300853)"><path d="M21.5 -6.55 C29.03 -3.67, 36.56 -0.79, 40.35 0.66 M21.5 -6.55 C27.64 -4.2, 33.77 -1.86, 40.35 0.66" stroke="#1e1e1e" stroke-width="1" fill="none"></path></g></g><mask></mask><g stroke-linecap="round"><g transform="translate(137.33308048663173 121.29915781688351) rotate(0 20.486186011141342 0.05551836296893953)"><path d="M0 0 C9.59 0.03, 19.18 0.05, 40.97 0.11 M0 0 C12.42 0.03, 24.84 0.07, 40.97 0.11" stroke="#1e1e1e" stroke-width="1" fill="none"></path></g><g transform="translate(137.33308048663173 121.29915781688351) rotate(0 20.486186011141342 0.05551836296893953)"><path d="M21.7 7.07 C26.21 5.44, 30.72 3.81, 40.97 0.11 M21.7 7.07 C27.54 4.96, 33.39 2.85, 40.97 0.11" stroke="#1e1e1e" stroke-width="1" fill="none"></path></g><g transform="translate(137.33308048663173 121.29915781688351) rotate(0 20.486186011141342 0.05551836296893953)"><path d="M21.74 -6.95 C26.24 -5.3, 30.74 -3.64, 40.97 0.11 M21.74 -6.95 C27.57 -4.81, 33.4 -2.67, 40.97 0.11" stroke="#1e1e1e" stroke-width="1" fill="none"></path></g></g><mask></mask><g stroke-linecap="round"><g transform="translate(137.33315367619747 136.53027498895324) rotate(0 20.48615882090587 -0.12659616942164575)"><path d="M0 0 C13.35 -0.08, 26.7 -0.16, 40.97 -0.25 M0 0 C15.91 -0.1, 31.82 -0.2, 40.97 -0.25" stroke="#1e1e1e" stroke-width="1" fill="none"></path></g><g transform="translate(137.33315367619747 136.53027498895324) rotate(0 20.48615882090587 -0.12659616942164575)"><path d="M21.76 6.87 C28.02 4.55, 34.28 2.23, 40.97 -0.25 M21.76 6.87 C29.22 4.11, 36.68 1.34, 40.97 -0.25" stroke="#1e1e1e" stroke-width="1" fill="none"></path></g><g transform="translate(137.33315367619747 136.53027498895324) rotate(0 20.48615882090587 -0.12659616942164575)"><path d="M21.68 -7.14 C27.96 -4.9, 34.25 -2.65, 40.97 -0.25 M21.68 -7.14 C29.17 -4.47, 36.66 -1.79, 40.97 -0.25" stroke="#1e1e1e" stroke-width="1" fill="none"></path></g></g><mask></mask><g transform="translate(183.2939840170916 93.16273706074293) rotate(269.2047089822916 34.227333068847656 16.207571022344695)"><text x="34.227333068847656" y="0" font-family="Virgil, Segoe UI Emoji" font-size="12.966056817875753px" fill="#1e1e1e" text-anchor="middle" style="white-space: pre;" direction="ltr" dominant-baseline="text-before-edge">Producers</text><text x="34.227333068847656" y="16.20757102234469" font-family="Virgil, Segoe UI Emoji" font-size="12.966056817875753px" fill="#1e1e1e" text-anchor="middle" style="white-space: pre;" direction="ltr" dominant-baseline="text-before-edge">Kafka API</text></g><g transform="translate(85.59851280519445 100.20813296692745) rotate(270.336306811671 34.88395690917969 8.437747027150522)"><text x="34.88395690917969" y="0" font-family="Virgil, Segoe UI Emoji" font-size="13.500395243440824px" fill="#1e1e1e" text-anchor="middle" style="white-space: pre;" direction="ltr" dominant-baseline="text-before-edge">Live Feeds</text></g><g stroke-linecap="round" transform="translate(10 10) rotate(0 46.59363401500099 96.58471310440376)"><path d="M0 0 C30.56 0, 61.12 0, 93.19 0 M0 0 C36.88 0, 73.77 0, 93.19 0 M93.19 0 C93.19 51.1, 93.19 102.19, 93.19 193.17 M93.19 0 C93.19 47.17, 93.19 94.33, 93.19 193.17 M93.19 193.17 C66.27 193.17, 39.35 193.17, 0 193.17 M93.19 193.17 C71.3 193.17, 49.4 193.17, 0 193.17 M0 193.17 C0 147.79, 0 102.42, 0 0 M0 193.17 C0 152.06, 0 110.95, 0 0" stroke="#1e1e1e" stroke-width="1" fill="none"></path></g><g stroke-linecap="round" transform="translate(27.69013832192013 14.87482156263178) rotate(0 27.38900563195736 15.694824797436354)"><path d="M0 0 C12.23 0, 24.45 0, 54.78 0 M0 0 C14.83 0, 29.66 0, 54.78 0 M54.78 0 C54.78 9.01, 54.78 18.03, 54.78 31.39 M54.78 0 C54.78 8.98, 54.78 17.97, 54.78 31.39 M54.78 31.39 C38.42 31.39, 22.07 31.39, 0 31.39 M54.78 31.39 C36.58 31.39, 18.37 31.39, 0 31.39 M0 31.39 C0 19.46, 0 7.53, 0 0 M0 31.39 C0 23.66, 0 15.93, 0 0" stroke="#1e1e1e" stroke-width="1" fill="none"></path></g><g transform="translate(37.1544079309283 21.029645424998137) rotate(0 17.92473602294922 9.45223709199962)"><text x="17.92473602294922" y="0" font-family="Virgil, Segoe UI Emoji" font-size="7.561789673599697px" fill="#1e1e1e" text-anchor="middle" style="white-space: pre;" direction="ltr" dominant-baseline="text-before-edge">Monitoring</text><text x="17.92473602294922" y="9.45223709199962" font-family="Virgil, Segoe UI Emoji" font-size="7.561789673599697px" fill="#1e1e1e" text-anchor="middle" style="white-space: pre;" direction="ltr" dominant-baseline="text-before-edge">Tools</text></g><g stroke-linecap="round" transform="translate(27.69013832192013 64.42120577767389) rotate(0 27.38900563195736 15.694824797436354)"><path d="M0 0 C20.86 0, 41.72 0, 54.78 0 M0 0 C20.22 0, 40.45 0, 54.78 0 M54.78 0 C54.78 11.65, 54.78 23.29, 54.78 31.39 M54.78 0 C54.78 9.98, 54.78 19.96, 54.78 31.39 M54.78 31.39 C37.85 31.39, 20.93 31.39, 0 31.39 M54.78 31.39 C32.92 31.39, 11.07 31.39, 0 31.39 M0 31.39 C0 19.4, 0 7.4, 0 0 M0 31.39 C0 20.49, 0 9.59, 0 0" stroke="#1e1e1e" stroke-width="1" fill="none"></path></g><g transform="translate(30.316349459248556 67.49860362156173) rotate(0 24.762794494628906 13.044642933569222)"><text x="24.762794494628906" y="0" font-family="Virgil, Segoe UI Emoji" font-size="6.957142897903593px" fill="#1e1e1e" text-anchor="middle" style="white-space: pre;" direction="ltr" dominant-baseline="text-before-edge">Compliance</text><text x="24.762794494628906" y="8.696428622379491" font-family="Virgil, Segoe UI Emoji" font-size="6.957142897903593px" fill="#1e1e1e" text-anchor="middle" style="white-space: pre;" direction="ltr" dominant-baseline="text-before-edge">and</text><text x="24.762794494628906" y="17.392857244758982" font-family="Virgil, Segoe UI Emoji" font-size="6.957142897903593px" fill="#1e1e1e" text-anchor="middle" style="white-space: pre;" direction="ltr" dominant-baseline="text-before-edge">Security Tools</text></g><g stroke-linecap="round" transform="translate(296.74977444180377 13.86365577759068) rotate(0 45.20117281361365 93.69825729368702)"><path d="M0 0 C32.01 0, 64.03 0, 90.4 0 M0 0 C27.71 0, 55.42 0, 90.4 0 M90.4 0 C90.4 55.22, 90.4 110.44, 90.4 187.4 M90.4 0 C90.4 50.01, 90.4 100.02, 90.4 187.4 M90.4 187.4 C59.57 187.4, 28.74 187.4, 0 187.4 M90.4 187.4 C56.21 187.4, 22.01 187.4, 0 187.4 M0 187.4 C0 113.28, 0 39.16, 0 0 M0 187.4 C0 145.53, 0 103.65, 0 0" stroke="#1e1e1e" stroke-width="1" fill="none"></path></g><g stroke-linecap="round" transform="translate(27.69013832192013 115.81408223077108) rotate(0 27.38900563195736 15.694824797436354)"><path d="M0 0 C18.82 0, 37.64 0, 54.78 0 M0 0 C13.05 0, 26.11 0, 54.78 0 M54.78 0 C54.78 6.31, 54.78 12.61, 54.78 31.39 M54.78 0 C54.78 6.41, 54.78 12.82, 54.78 31.39 M54.78 31.39 C34.45 31.39, 14.13 31.39, 0 31.39 M54.78 31.39 C43.5 31.39, 32.22 31.39, 0 31.39 M0 31.39 C0 23.31, 0 15.23, 0 0 M0 31.39 C0 24.92, 0 18.45, 0 0" stroke="#1e1e1e" stroke-width="1" fill="none"></path></g><g transform="translate(39.740528536397164 122.89148007465883) rotate(0 15.338615417480469 8.6964286223795)"><text x="15.338615417480469" y="0" font-family="Virgil, Segoe UI Emoji" font-size="6.957142897903593px" fill="#1e1e1e" text-anchor="middle" style="white-space: pre;" direction="ltr" dominant-baseline="text-before-edge">Stock</text><text x="15.338615417480469" y="8.696428622379491" font-family="Virgil, Segoe UI Emoji" font-size="6.957142897903593px" fill="#1e1e1e" text-anchor="middle" style="white-space: pre;" direction="ltr" dominant-baseline="text-before-edge">Exchange</text></g><g stroke-linecap="round" transform="translate(27.69013832192013 167.51468156350268) rotate(0 27.38900563195736 16.156437291478596)"><path d="M0 0 C15.73 0, 31.46 0, 54.78 0 M0 0 C15.68 0, 31.36 0, 54.78 0 M54.78 0 C54.78 9.65, 54.78 19.29, 54.78 32.31 M54.78 0 C54.78 10.74, 54.78 21.48, 54.78 32.31 M54.78 32.31 C33.96 32.31, 13.14 32.31, 0 32.31 M54.78 32.31 C41.29 32.31, 27.8 32.31, 0 32.31 M0 32.31 C0 25.05, 0 17.78, 0 0 M0 32.31 C0 23.8, 0 15.29, 0 0" stroke="#1e1e1e" stroke-width="1" fill="none"></path></g><g transform="translate(42.35719723756887 174.59207940739037) rotate(0 12.721946716308594 8.6964286223795)"><text x="12.721946716308594" y="0" font-family="Virgil, Segoe UI Emoji" font-size="6.957142897903593px" fill="#1e1e1e" text-anchor="middle" style="white-space: pre;" direction="ltr" dominant-baseline="text-before-edge">IOT</text><text x="12.721946716308594" y="8.696428622379491" font-family="Virgil, Segoe UI Emoji" font-size="6.957142897903593px" fill="#1e1e1e" text-anchor="middle" style="white-space: pre;" direction="ltr" dominant-baseline="text-before-edge">Devices</text></g><g stroke-linecap="round"><g transform="translate(401.27327252897567 88.45117967572844) rotate(0 21.797457076881358 0.7200095113964835)"><path d="M0 0 C16.17 0.53, 32.35 1.07, 43.59 1.44 M0 0 C13.86 0.46, 27.73 0.92, 43.59 1.44" stroke="#1e1e1e" stroke-width="1" fill="none"></path></g><g transform="translate(401.27327252897567 88.45117967572844) rotate(0 21.797457076881358 0.7200095113964835)"><path d="M22.87 8.22 C30.56 5.7, 38.25 3.19, 43.59 1.44 M22.87 8.22 C29.46 6.06, 36.05 3.91, 43.59 1.44" stroke="#1e1e1e" stroke-width="1" fill="none"></path></g><g transform="translate(401.27327252897567 88.45117967572844) rotate(0 21.797457076881358 0.7200095113964835)"><path d="M23.36 -6.69 C30.87 -3.67, 38.37 -0.66, 43.59 1.44 M23.36 -6.69 C29.79 -4.11, 36.23 -1.52, 43.59 1.44" stroke="#1e1e1e" stroke-width="1" fill="none"></path></g></g><mask></mask><g stroke-linecap="round"><g transform="translate(402.77556239112255 106.48634374485187) rotate(0 21.046312145807974 0.3262612814364161)"><path d="M0 0 C10.03 0.16, 20.07 0.31, 42.09 0.65 M0 0 C8.83 0.14, 17.66 0.27, 42.09 0.65" stroke="#1e1e1e" stroke-width="1" fill="none"></path></g><g transform="translate(402.77556239112255 106.48634374485187) rotate(0 21.046312145807974 0.3262612814364161)"><path d="M22.2 7.54 C26.95 5.9, 31.69 4.26, 42.09 0.65 M22.2 7.54 C26.38 6.1, 30.55 4.65, 42.09 0.65" stroke="#1e1e1e" stroke-width="1" fill="none"></path></g><g transform="translate(402.77556239112255 106.48634374485187) rotate(0 21.046312145807974 0.3262612814364161)"><path d="M22.43 -6.85 C27.12 -5.06, 31.8 -3.27, 42.09 0.65 M22.43 -6.85 C26.55 -5.28, 30.68 -3.7, 42.09 0.65" stroke="#1e1e1e" stroke-width="1" fill="none"></path></g></g><mask></mask><g stroke-linecap="round"><g transform="translate(402.91670235661 124.87552638264367) rotate(0 20.975742163064126 0.05408806682459044)"><path d="M0 0 C12.36 0.03, 24.72 0.06, 41.95 0.11 M0 0 C11.2 0.03, 22.39 0.06, 41.95 0.11" stroke="#1e1e1e" stroke-width="1" fill="none"></path></g><g transform="translate(402.91670235661 124.87552638264367) rotate(0 20.975742163064126 0.05408806682459044)"><path d="M22.22 7.23 C28.04 5.13, 33.85 3.03, 41.95 0.11 M22.22 7.23 C27.49 5.33, 32.75 3.43, 41.95 0.11" stroke="#1e1e1e" stroke-width="1" fill="none"></path></g><g transform="translate(402.91670235661 124.87552638264367) rotate(0 20.975742163064126 0.05408806682459044)"><path d="M22.26 -7.12 C28.06 -4.99, 33.86 -2.86, 41.95 0.11 M22.26 -7.12 C27.51 -5.19, 32.77 -3.26, 41.95 0.11" stroke="#1e1e1e" stroke-width="1" fill="none"></path></g></g><mask></mask><g stroke-linecap="round"><g transform="translate(402.91671690254134 139.1028537836762) rotate(0 20.975734890098465 -0.12298339622969934)"><path d="M0 0 C8.43 -0.05, 16.86 -0.1, 41.95 -0.25 M0 0 C8.57 -0.05, 17.14 -0.1, 41.95 -0.25" stroke="#1e1e1e" stroke-width="1" fill="none"></path></g><g transform="translate(402.91671690254134 139.1028537836762) rotate(0 20.975734890098465 -0.12298339622969934)"><path d="M22.28 7.04 C26.23 5.58, 30.19 4.11, 41.95 -0.25 M22.28 7.04 C26.3 5.55, 30.32 4.07, 41.95 -0.25" stroke="#1e1e1e" stroke-width="1" fill="none"></path></g><g transform="translate(402.91671690254134 139.1028537836762) rotate(0 20.975734890098465 -0.12298339622969934)"><path d="M22.2 -7.3 C26.17 -5.89, 30.14 -4.47, 41.95 -0.25 M22.2 -7.3 C26.23 -5.86, 30.27 -4.42, 41.95 -0.25" stroke="#1e1e1e" stroke-width="1" fill="none"></path></g></g><mask></mask><g stroke-linecap="round" transform="translate(460.80953893017704 18.65934100593867) rotate(0 18.761909917235755 90.63444026652677)"><path d="M0 0 C11.2 0, 22.4 0, 37.52 0 M0 0 C12.47 0, 24.94 0, 37.52 0 M37.52 0 C37.52 68.89, 37.52 137.77, 37.52 181.27 M37.52 0 C37.52 44.64, 37.52 89.27, 37.52 181.27 M37.52 181.27 C29.08 181.27, 20.65 181.27, 0 181.27 M37.52 181.27 C27.64 181.27, 17.75 181.27, 0 181.27 M0 181.27 C0 134.19, 0 87.11, 0 0 M0 181.27 C0 135.07, 0 88.88, 0 0" stroke="#1e1e1e" stroke-width="1" fill="none"></path></g><g transform="translate(444.23992955556514 84.68469326267103) rotate(269.2047089822916 34.491432189941406 16.328887164630117)"><text x="34.491432189941406" y="0" font-family="Virgil, Segoe UI Emoji" font-size="13.063109731704097px" fill="#1e1e1e" text-anchor="middle" style="white-space: pre;" direction="ltr" dominant-baseline="text-before-edge">Consumers</text><text x="34.491432189941406" y="16.32888716463012" font-family="Virgil, Segoe UI Emoji" font-size="13.063109731704097px" fill="#1e1e1e" text-anchor="middle" style="white-space: pre;" direction="ltr" dominant-baseline="text-before-edge">Kafka API</text></g><g stroke-linecap="round" transform="translate(349.33643245403914 82.72029013281508) rotate(0 2.1872150249600395 8.01978842485343)"><path d="M1.09 0 C1.77 0, 2.45 0, 3.28 0 M1.09 0 C1.97 0, 2.84 0, 3.28 0 M3.28 0 C4.01 0, 4.37 0.36, 4.37 1.09 M3.28 0 C4.01 0, 4.37 0.36, 4.37 1.09 M4.37 1.09 C4.37 6.22, 4.37 11.34, 4.37 14.95 M4.37 1.09 C4.37 6.06, 4.37 11.02, 4.37 14.95 M4.37 14.95 C4.37 15.68, 4.01 16.04, 3.28 16.04 M4.37 14.95 C4.37 15.68, 4.01 16.04, 3.28 16.04 M3.28 16.04 C2.73 16.04, 2.18 16.04, 1.09 16.04 M3.28 16.04 C2.66 16.04, 2.04 16.04, 1.09 16.04 M1.09 16.04 C0.36 16.04, 0 15.68, 0 14.95 M1.09 16.04 C0.36 16.04, 0 15.68, 0 14.95 M0 14.95 C0 11.53, 0 8.12, 0 1.09 M0 14.95 C0 11.53, 0 8.11, 0 1.09 M0 1.09 C0 0.36, 0.36 0, 1.09 0 M0 1.09 C0 0.36, 0.36 0, 1.09 0" stroke="#1e1e1e" stroke-width="1" fill="none"></path></g><g stroke-linecap="round" transform="translate(356.14109400408097 82.72029013281508) rotate(0 2.1872150249600395 8.01978842485343)"><path d="M1.09 0 C1.68 0, 2.27 0, 3.28 0 M1.09 0 C1.71 0, 2.32 0, 3.28 0 M3.28 0 C4.01 0, 4.37 0.36, 4.37 1.09 M3.28 0 C4.01 0, 4.37 0.36, 4.37 1.09 M4.37 1.09 C4.37 4.21, 4.37 7.32, 4.37 14.95 M4.37 1.09 C4.37 4.74, 4.37 8.39, 4.37 14.95 M4.37 14.95 C4.37 15.68, 4.01 16.04, 3.28 16.04 M4.37 14.95 C4.37 15.68, 4.01 16.04, 3.28 16.04 M3.28 16.04 C2.62 16.04, 1.95 16.04, 1.09 16.04 M3.28 16.04 C2.57 16.04, 1.87 16.04, 1.09 16.04 M1.09 16.04 C0.36 16.04, 0 15.68, 0 14.95 M1.09 16.04 C0.36 16.04, 0 15.68, 0 14.95 M0 14.95 C0 9.72, 0 4.5, 0 1.09 M0 14.95 C0 9.99, 0 5.04, 0 1.09 M0 1.09 C0 0.36, 0.36 0, 1.09 0 M0 1.09 C0 0.36, 0.36 0, 1.09 0" stroke="#1e1e1e" stroke-width="1" fill="none"></path></g><g stroke-linecap="round" transform="translate(362.1356882760829 82.72029013281508) rotate(0 2.1872150249600395 8.01978842485343)"><path d="M1.09 0 C1.84 0, 2.59 0, 3.28 0 M1.09 0 C1.92 0, 2.75 0, 3.28 0 M3.28 0 C4.01 0, 4.37 0.36, 4.37 1.09 M3.28 0 C4.01 0, 4.37 0.36, 4.37 1.09 M4.37 1.09 C4.37 6.44, 4.37 11.78, 4.37 14.95 M4.37 1.09 C4.37 3.91, 4.37 6.73, 4.37 14.95 M4.37 14.95 C4.37 15.68, 4.01 16.04, 3.28 16.04 M4.37 14.95 C4.37 15.68, 4.01 16.04, 3.28 16.04 M3.28 16.04 C2.74 16.04, 2.2 16.04, 1.09 16.04 M3.28 16.04 C2.75 16.04, 2.22 16.04, 1.09 16.04 M1.09 16.04 C0.36 16.04, 0 15.68, 0 14.95 M1.09 16.04 C0.36 16.04, 0 15.68, 0 14.95 M0 14.95 C0 9.57, 0 4.2, 0 1.09 M0 14.95 C0 12.09, 0 9.23, 0 1.09 M0 1.09 C0 0.36, 0.36 0, 1.09 0 M0 1.09 C0 0.36, 0.36 0, 1.09 0" stroke="#1e1e1e" stroke-width="1" fill="none"></path></g><g stroke-linecap="round" transform="translate(368.616330331409 82.72029013281508) rotate(0 2.1872150249600395 8.01978842485343)"><path d="M1.09 0 C1.91 0, 2.72 0, 3.28 0 M1.09 0 C1.54 0, 1.99 0, 3.28 0 M3.28 0 C4.01 0, 4.37 0.36, 4.37 1.09 M3.28 0 C4.01 0, 4.37 0.36, 4.37 1.09 M4.37 1.09 C4.37 4.19, 4.37 7.29, 4.37 14.95 M4.37 1.09 C4.37 4.15, 4.37 7.21, 4.37 14.95 M4.37 14.95 C4.37 15.68, 4.01 16.04, 3.28 16.04 M4.37 14.95 C4.37 15.68, 4.01 16.04, 3.28 16.04 M3.28 16.04 C2.81 16.04, 2.34 16.04, 1.09 16.04 M3.28 16.04 C2.46 16.04, 1.64 16.04, 1.09 16.04 M1.09 16.04 C0.36 16.04, 0 15.68, 0 14.95 M1.09 16.04 C0.36 16.04, 0 15.68, 0 14.95 M0 14.95 C0 11.92, 0 8.9, 0 1.09 M0 14.95 C0 9.68, 0 4.41, 0 1.09 M0 1.09 C0 0.36, 0.36 0, 1.09 0 M0 1.09 C0 0.36, 0.36 0, 1.09 0" stroke="#1e1e1e" stroke-width="1" fill="none"></path></g><g stroke-linecap="round" transform="translate(345.63499288387584 78.26975104201108) rotate(0 15.510791699756965 11.985616535742821)"><path d="M0 0 C7.29 0, 14.57 0, 31.02 0 M0 0 C6.6 0, 13.2 0, 31.02 0 M31.02 0 C31.02 8.86, 31.02 17.73, 31.02 23.97 M31.02 0 C31.02 8.59, 31.02 17.17, 31.02 23.97 M31.02 23.97 C19.96 23.97, 8.91 23.97, 0 23.97 M31.02 23.97 C24.06 23.97, 17.1 23.97, 0 23.97 M0 23.97 C0 18.8, 0 13.62, 0 0 M0 23.97 C0 14.98, 0 5.98, 0 0" stroke="#1e1e1e" stroke-width="1" fill="none"></path></g><g stroke-linecap="round" transform="translate(349.33643245403914 51.52244232715185) rotate(0 2.1872150249600395 8.01978842485343)"><path d="M1.09 0 C1.92 0, 2.76 0, 3.28 0 M1.09 0 C1.63 0, 2.17 0, 3.28 0 M3.28 0 C4.01 0, 4.37 0.36, 4.37 1.09 M3.28 0 C4.01 0, 4.37 0.36, 4.37 1.09 M4.37 1.09 C4.37 4.99, 4.37 8.88, 4.37 14.95 M4.37 1.09 C4.37 4.32, 4.37 7.55, 4.37 14.95 M4.37 14.95 C4.37 15.68, 4.01 16.04, 3.28 16.04 M4.37 14.95 C4.37 15.68, 4.01 16.04, 3.28 16.04 M3.28 16.04 C2.82 16.04, 2.36 16.04, 1.09 16.04 M3.28 16.04 C2.78 16.04, 2.29 16.04, 1.09 16.04 M1.09 16.04 C0.36 16.04, 0 15.68, 0 14.95 M1.09 16.04 C0.36 16.04, 0 15.68, 0 14.95 M0 14.95 C0 11, 0 7.05, 0 1.09 M0 14.95 C0 10.76, 0 6.57, 0 1.09 M0 1.09 C0 0.36, 0.36 0, 1.09 0 M0 1.09 C0 0.36, 0.36 0, 1.09 0" stroke="#1e1e1e" stroke-width="1" fill="none"></path></g><g stroke-linecap="round" transform="translate(356.14109400408097 51.52244232715185) rotate(0 2.1872150249600395 8.01978842485343)"><path d="M1.09 0 C1.89 0, 2.68 0, 3.28 0 M1.09 0 C1.56 0, 2.03 0, 3.28 0 M3.28 0 C4.01 0, 4.37 0.36, 4.37 1.09 M3.28 0 C4.01 0, 4.37 0.36, 4.37 1.09 M4.37 1.09 C4.37 5.55, 4.37 10.01, 4.37 14.95 M4.37 1.09 C4.37 4.94, 4.37 8.79, 4.37 14.95 M4.37 14.95 C4.37 15.68, 4.01 16.04, 3.28 16.04 M4.37 14.95 C4.37 15.68, 4.01 16.04, 3.28 16.04 M3.28 16.04 C2.52 16.04, 1.76 16.04, 1.09 16.04 M3.28 16.04 C2.81 16.04, 2.34 16.04, 1.09 16.04 M1.09 16.04 C0.36 16.04, 0 15.68, 0 14.95 M1.09 16.04 C0.36 16.04, 0 15.68, 0 14.95 M0 14.95 C0 12.13, 0 9.32, 0 1.09 M0 14.95 C0 11.28, 0 7.62, 0 1.09 M0 1.09 C0 0.36, 0.36 0, 1.09 0 M0 1.09 C0 0.36, 0.36 0, 1.09 0" stroke="#1e1e1e" stroke-width="1" fill="none"></path></g><g stroke-linecap="round" transform="translate(362.1356882760829 51.52244232715185) rotate(0 2.1872150249600395 8.01978842485343)"><path d="M1.09 0 C1.93 0, 2.77 0, 3.28 0 M1.09 0 C1.85 0, 2.61 0, 3.28 0 M3.28 0 C4.01 0, 4.37 0.36, 4.37 1.09 M3.28 0 C4.01 0, 4.37 0.36, 4.37 1.09 M4.37 1.09 C4.37 6.03, 4.37 10.97, 4.37 14.95 M4.37 1.09 C4.37 4.2, 4.37 7.31, 4.37 14.95 M4.37 14.95 C4.37 15.68, 4.01 16.04, 3.28 16.04 M4.37 14.95 C4.37 15.68, 4.01 16.04, 3.28 16.04 M3.28 16.04 C2.81 16.04, 2.34 16.04, 1.09 16.04 M3.28 16.04 C2.67 16.04, 2.05 16.04, 1.09 16.04 M1.09 16.04 C0.36 16.04, 0 15.68, 0 14.95 M1.09 16.04 C0.36 16.04, 0 15.68, 0 14.95 M0 14.95 C0 9.69, 0 4.43, 0 1.09 M0 14.95 C0 10.73, 0 6.52, 0 1.09 M0 1.09 C0 0.36, 0.36 0, 1.09 0 M0 1.09 C0 0.36, 0.36 0, 1.09 0" stroke="#1e1e1e" stroke-width="1" fill="none"></path></g><g stroke-linecap="round" transform="translate(368.61633033140924 51.52244232715185) rotate(0 2.1872150249600395 8.01978842485343)"><path d="M1.09 0 C1.59 0, 2.08 0, 3.28 0 M1.09 0 C1.67 0, 2.24 0, 3.28 0 M3.28 0 C4.01 0, 4.37 0.36, 4.37 1.09 M3.28 0 C4.01 0, 4.37 0.36, 4.37 1.09 M4.37 1.09 C4.37 4.69, 4.37 8.29, 4.37 14.95 M4.37 1.09 C4.37 4.62, 4.37 8.15, 4.37 14.95 M4.37 14.95 C4.37 15.68, 4.01 16.04, 3.28 16.04 M4.37 14.95 C4.37 15.68, 4.01 16.04, 3.28 16.04 M3.28 16.04 C2.81 16.04, 2.33 16.04, 1.09 16.04 M3.28 16.04 C2.55 16.04, 1.82 16.04, 1.09 16.04 M1.09 16.04 C0.36 16.04, 0 15.68, 0 14.95 M1.09 16.04 C0.36 16.04, 0 15.68, 0 14.95 M0 14.95 C0 9.66, 0 4.37, 0 1.09 M0 14.95 C0 11.85, 0 8.75, 0 1.09 M0 1.09 C0 0.36, 0.36 0, 1.09 0 M0 1.09 C0 0.36, 0.36 0, 1.09 0" stroke="#1e1e1e" stroke-width="1" fill="none"></path></g><g stroke-linecap="round" transform="translate(345.63499288387584 47.07190323634785) rotate(0 15.510791699756965 11.985616535742821)"><path d="M0 0 C12.27 0, 24.54 0, 31.02 0 M0 0 C6.93 0, 13.86 0, 31.02 0 M31.02 0 C31.02 6.74, 31.02 13.48, 31.02 23.97 M31.02 0 C31.02 5.59, 31.02 11.17, 31.02 23.97 M31.02 23.97 C21.59 23.97, 12.16 23.97, 0 23.97 M31.02 23.97 C20.99 23.97, 10.96 23.97, 0 23.97 M0 23.97 C0 18.79, 0 13.6, 0 0 M0 23.97 C0 15.97, 0 7.98, 0 0" stroke="#1e1e1e" stroke-width="1" fill="none"></path></g><g stroke-linecap="round" transform="translate(309.57180810957357 148.53128177794906) rotate(0 2.1872150249600395 8.01978842485343)"><path d="M1.09 0 C1.66 0, 2.22 0, 3.28 0 M1.09 0 C1.54 0, 2 0, 3.28 0 M3.28 0 C4.01 0, 4.37 0.36, 4.37 1.09 M3.28 0 C4.01 0, 4.37 0.36, 4.37 1.09 M4.37 1.09 C4.37 4.9, 4.37 8.71, 4.37 14.95 M4.37 1.09 C4.37 4.39, 4.37 7.69, 4.37 14.95 M4.37 14.95 C4.37 15.68, 4.01 16.04, 3.28 16.04 M4.37 14.95 C4.37 15.68, 4.01 16.04, 3.28 16.04 M3.28 16.04 C2.65 16.04, 2.01 16.04, 1.09 16.04 M3.28 16.04 C2.79 16.04, 2.31 16.04, 1.09 16.04 M1.09 16.04 C0.36 16.04, 0 15.68, 0 14.95 M1.09 16.04 C0.36 16.04, 0 15.68, 0 14.95 M0 14.95 C0 9.91, 0 4.87, 0 1.09 M0 14.95 C0 10.46, 0 5.98, 0 1.09 M0 1.09 C0 0.36, 0.36 0, 1.09 0 M0 1.09 C0 0.36, 0.36 0, 1.09 0" stroke="#1e1e1e" stroke-width="1" fill="none"></path></g><g stroke-linecap="round" transform="translate(316.3764696596154 148.53128177794906) rotate(0 2.1872150249600395 8.01978842485343)"><path d="M1.09 0 C1.9 0, 2.71 0, 3.28 0 M1.09 0 C1.88 0, 2.66 0, 3.28 0 M3.28 0 C4.01 0, 4.37 0.36, 4.37 1.09 M3.28 0 C4.01 0, 4.37 0.36, 4.37 1.09 M4.37 1.09 C4.37 4.59, 4.37 8.08, 4.37 14.95 M4.37 1.09 C4.37 5.02, 4.37 8.95, 4.37 14.95 M4.37 14.95 C4.37 15.68, 4.01 16.04, 3.28 16.04 M4.37 14.95 C4.37 15.68, 4.01 16.04, 3.28 16.04 M3.28 16.04 C2.74 16.04, 2.2 16.04, 1.09 16.04 M3.28 16.04 C2.74 16.04, 2.2 16.04, 1.09 16.04 M1.09 16.04 C0.36 16.04, 0 15.68, 0 14.95 M1.09 16.04 C0.36 16.04, 0 15.68, 0 14.95 M0 14.95 C0 10.52, 0 6.09, 0 1.09 M0 14.95 C0 10.63, 0 6.31, 0 1.09 M0 1.09 C0 0.36, 0.36 0, 1.09 0 M0 1.09 C0 0.36, 0.36 0, 1.09 0" stroke="#1e1e1e" stroke-width="1" fill="none"></path></g><g stroke-linecap="round" transform="translate(322.3710639316173 148.53128177794906) rotate(0 2.1872150249600395 8.01978842485343)"><path d="M1.09 0 C1.59 0, 2.08 0, 3.28 0 M1.09 0 C1.67 0, 2.25 0, 3.28 0 M3.28 0 C4.01 0, 4.37 0.36, 4.37 1.09 M3.28 0 C4.01 0, 4.37 0.36, 4.37 1.09 M4.37 1.09 C4.37 5.31, 4.37 9.52, 4.37 14.95 M4.37 1.09 C4.37 5.57, 4.37 10.05, 4.37 14.95 M4.37 14.95 C4.37 15.68, 4.01 16.04, 3.28 16.04 M4.37 14.95 C4.37 15.68, 4.01 16.04, 3.28 16.04 M3.28 16.04 C2.46 16.04, 1.63 16.04, 1.09 16.04 M3.28 16.04 C2.5 16.04, 1.72 16.04, 1.09 16.04 M1.09 16.04 C0.36 16.04, 0 15.68, 0 14.95 M1.09 16.04 C0.36 16.04, 0 15.68, 0 14.95 M0 14.95 C0 10.38, 0 5.82, 0 1.09 M0 14.95 C0 10.55, 0 6.15, 0 1.09 M0 1.09 C0 0.36, 0.36 0, 1.09 0 M0 1.09 C0 0.36, 0.36 0, 1.09 0" stroke="#1e1e1e" stroke-width="1" fill="none"></path></g><g stroke-linecap="round" transform="translate(328.85170598694344 148.53128177794906) rotate(0 2.1872150249600395 8.01978842485343)"><path d="M1.09 0 C1.94 0, 2.78 0, 3.28 0 M1.09 0 C1.54 0, 1.98 0, 3.28 0 M3.28 0 C4.01 0, 4.37 0.36, 4.37 1.09 M3.28 0 C4.01 0, 4.37 0.36, 4.37 1.09 M4.37 1.09 C4.37 4.51, 4.37 7.92, 4.37 14.95 M4.37 1.09 C4.37 4.46, 4.37 7.82, 4.37 14.95 M4.37 14.95 C4.37 15.68, 4.01 16.04, 3.28 16.04 M4.37 14.95 C4.37 15.68, 4.01 16.04, 3.28 16.04 M3.28 16.04 C2.43 16.04, 1.58 16.04, 1.09 16.04 M3.28 16.04 C2.83 16.04, 2.38 16.04, 1.09 16.04 M1.09 16.04 C0.36 16.04, 0 15.68, 0 14.95 M1.09 16.04 C0.36 16.04, 0 15.68, 0 14.95 M0 14.95 C0 11.81, 0 8.67, 0 1.09 M0 14.95 C0 10.5, 0 6.05, 0 1.09 M0 1.09 C0 0.36, 0.36 0, 1.09 0 M0 1.09 C0 0.36, 0.36 0, 1.09 0" stroke="#1e1e1e" stroke-width="1" fill="none"></path></g><g stroke-linecap="round" transform="translate(305.87036853941015 144.08074268714506) rotate(0 15.510791699756965 11.985616535742821)"><path d="M0 0 C6.94 0, 13.87 0, 31.02 0 M0 0 C6.85 0, 13.69 0, 31.02 0 M31.02 0 C31.02 6.59, 31.02 13.17, 31.02 23.97 M31.02 0 C31.02 5.71, 31.02 11.41, 31.02 23.97 M31.02 23.97 C20.23 23.97, 9.44 23.97, 0 23.97 M31.02 23.97 C24.33 23.97, 17.63 23.97, 0 23.97 M0 23.97 C0 14.67, 0 5.37, 0 0 M0 23.97 C0 19.02, 0 14.08, 0 0" stroke="#1e1e1e" stroke-width="1" fill="none"></path></g><g stroke-linecap="round" transform="translate(309.57180810957357 117.33343397228577) rotate(0 2.1872150249600395 8.01978842485343)"><path d="M1.09 0 C1.65 0, 2.21 0, 3.28 0 M1.09 0 C1.93 0, 2.76 0, 3.28 0 M3.28 0 C4.01 0, 4.37 0.36, 4.37 1.09 M3.28 0 C4.01 0, 4.37 0.36, 4.37 1.09 M4.37 1.09 C4.37 3.96, 4.37 6.82, 4.37 14.95 M4.37 1.09 C4.37 6.14, 4.37 11.19, 4.37 14.95 M4.37 14.95 C4.37 15.68, 4.01 16.04, 3.28 16.04 M4.37 14.95 C4.37 15.68, 4.01 16.04, 3.28 16.04 M3.28 16.04 C2.45 16.04, 1.63 16.04, 1.09 16.04 M3.28 16.04 C2.7 16.04, 2.13 16.04, 1.09 16.04 M1.09 16.04 C0.36 16.04, 0 15.68, 0 14.95 M1.09 16.04 C0.36 16.04, 0 15.68, 0 14.95 M0 14.95 C0 11, 0 7.06, 0 1.09 M0 14.95 C0 11.92, 0 8.9, 0 1.09 M0 1.09 C0 0.36, 0.36 0, 1.09 0 M0 1.09 C0 0.36, 0.36 0, 1.09 0" stroke="#1e1e1e" stroke-width="1" fill="none"></path></g><g stroke-linecap="round" transform="translate(316.3764696596154 117.33343397228577) rotate(0 2.1872150249600395 8.01978842485343)"><path d="M1.09 0 C1.71 0, 2.32 0, 3.28 0 M1.09 0 C1.6 0, 2.11 0, 3.28 0 M3.28 0 C4.01 0, 4.37 0.36, 4.37 1.09 M3.28 0 C4.01 0, 4.37 0.36, 4.37 1.09 M4.37 1.09 C4.37 4, 4.37 6.9, 4.37 14.95 M4.37 1.09 C4.37 4.24, 4.37 7.39, 4.37 14.95 M4.37 14.95 C4.37 15.68, 4.01 16.04, 3.28 16.04 M4.37 14.95 C4.37 15.68, 4.01 16.04, 3.28 16.04 M3.28 16.04 C2.66 16.04, 2.03 16.04, 1.09 16.04 M3.28 16.04 C2.62 16.04, 1.96 16.04, 1.09 16.04 M1.09 16.04 C0.36 16.04, 0 15.68, 0 14.95 M1.09 16.04 C0.36 16.04, 0 15.68, 0 14.95 M0 14.95 C0 9.52, 0 4.1, 0 1.09 M0 14.95 C0 11.66, 0 8.38, 0 1.09 M0 1.09 C0 0.36, 0.36 0, 1.09 0 M0 1.09 C0 0.36, 0.36 0, 1.09 0" stroke="#1e1e1e" stroke-width="1" fill="none"></path></g><g stroke-linecap="round" transform="translate(322.3710639316173 117.33343397228577) rotate(0 2.1872150249600395 8.01978842485343)"><path d="M1.09 0 C1.8 0, 2.5 0, 3.28 0 M1.09 0 C1.7 0, 2.31 0, 3.28 0 M3.28 0 C4.01 0, 4.37 0.36, 4.37 1.09 M3.28 0 C4.01 0, 4.37 0.36, 4.37 1.09 M4.37 1.09 C4.37 5.91, 4.37 10.73, 4.37 14.95 M4.37 1.09 C4.37 4.08, 4.37 7.07, 4.37 14.95 M4.37 14.95 C4.37 15.68, 4.01 16.04, 3.28 16.04 M4.37 14.95 C4.37 15.68, 4.01 16.04, 3.28 16.04 M3.28 16.04 C2.84 16.04, 2.39 16.04, 1.09 16.04 M3.28 16.04 C2.7 16.04, 2.12 16.04, 1.09 16.04 M1.09 16.04 C0.36 16.04, 0 15.68, 0 14.95 M1.09 16.04 C0.36 16.04, 0 15.68, 0 14.95 M0 14.95 C0 10.06, 0 5.17, 0 1.09 M0 14.95 C0 11.79, 0 8.64, 0 1.09 M0 1.09 C0 0.36, 0.36 0, 1.09 0 M0 1.09 C0 0.36, 0.36 0, 1.09 0" stroke="#1e1e1e" stroke-width="1" fill="none"></path></g><g stroke-linecap="round" transform="translate(328.85170598694367 117.33343397228577) rotate(0 2.1872150249600395 8.01978842485343)"><path d="M1.09 0 C1.87 0, 2.65 0, 3.28 0 M1.09 0 C1.58 0, 2.08 0, 3.28 0 M3.28 0 C4.01 0, 4.37 0.36, 4.37 1.09 M3.28 0 C4.01 0, 4.37 0.36, 4.37 1.09 M4.37 1.09 C4.37 4.08, 4.37 7.08, 4.37 14.95 M4.37 1.09 C4.37 4.99, 4.37 8.88, 4.37 14.95 M4.37 14.95 C4.37 15.68, 4.01 16.04, 3.28 16.04 M4.37 14.95 C4.37 15.68, 4.01 16.04, 3.28 16.04 M3.28 16.04 C2.45 16.04, 1.62 16.04, 1.09 16.04 M3.28 16.04 C2.62 16.04, 1.95 16.04, 1.09 16.04 M1.09 16.04 C0.36 16.04, 0 15.68, 0 14.95 M1.09 16.04 C0.36 16.04, 0 15.68, 0 14.95 M0 14.95 C0 10.71, 0 6.48, 0 1.09 M0 14.95 C0 10.64, 0 6.34, 0 1.09 M0 1.09 C0 0.36, 0.36 0, 1.09 0 M0 1.09 C0 0.36, 0.36 0, 1.09 0" stroke="#1e1e1e" stroke-width="1" fill="none"></path></g><g stroke-linecap="round" transform="translate(305.87036853941015 112.88289488148177) rotate(0 15.510791699756965 11.985616535742821)"><path d="M0 0 C8.06 0, 16.11 0, 31.02 0 M0 0 C7.91 0, 15.81 0, 31.02 0 M31.02 0 C31.02 4.95, 31.02 9.91, 31.02 23.97 M31.02 0 C31.02 8.74, 31.02 17.47, 31.02 23.97 M31.02 23.97 C23.38 23.97, 15.74 23.97, 0 23.97 M31.02 23.97 C23.37 23.97, 15.72 23.97, 0 23.97 M0 23.97 C0 14.87, 0 5.77, 0 0 M0 23.97 C0 16.68, 0 9.38, 0 0" stroke="#1e1e1e" stroke-width="1" fill="none"></path></g><g stroke-linecap="round" transform="translate(349.33643245403914 147.37669416842004) rotate(0 2.1872150249600395 8.01978842485343)"><path d="M1.09 0 C1.84 0, 2.58 0, 3.28 0 M1.09 0 C1.72 0, 2.35 0, 3.28 0 M3.28 0 C4.01 0, 4.37 0.36, 4.37 1.09 M3.28 0 C4.01 0, 4.37 0.36, 4.37 1.09 M4.37 1.09 C4.37 5.21, 4.37 9.32, 4.37 14.95 M4.37 1.09 C4.37 5.36, 4.37 9.62, 4.37 14.95 M4.37 14.95 C4.37 15.68, 4.01 16.04, 3.28 16.04 M4.37 14.95 C4.37 15.68, 4.01 16.04, 3.28 16.04 M3.28 16.04 C2.76 16.04, 2.25 16.04, 1.09 16.04 M3.28 16.04 C2.55 16.04, 1.82 16.04, 1.09 16.04 M1.09 16.04 C0.36 16.04, 0 15.68, 0 14.95 M1.09 16.04 C0.36 16.04, 0 15.68, 0 14.95 M0 14.95 C0 11.63, 0 8.32, 0 1.09 M0 14.95 C0 9.77, 0 4.6, 0 1.09 M0 1.09 C0 0.36, 0.36 0, 1.09 0 M0 1.09 C0 0.36, 0.36 0, 1.09 0" stroke="#1e1e1e" stroke-width="1" fill="none"></path></g><g stroke-linecap="round" transform="translate(356.14109400408097 147.37669416842004) rotate(0 2.1872150249600395 8.01978842485343)"><path d="M1.09 0 C1.69 0, 2.3 0, 3.28 0 M1.09 0 C1.61 0, 2.13 0, 3.28 0 M3.28 0 C4.01 0, 4.37 0.36, 4.37 1.09 M3.28 0 C4.01 0, 4.37 0.36, 4.37 1.09 M4.37 1.09 C4.37 5.11, 4.37 9.12, 4.37 14.95 M4.37 1.09 C4.37 4.18, 4.37 7.27, 4.37 14.95 M4.37 14.95 C4.37 15.68, 4.01 16.04, 3.28 16.04 M4.37 14.95 C4.37 15.68, 4.01 16.04, 3.28 16.04 M3.28 16.04 C2.49 16.04, 1.69 16.04, 1.09 16.04 M3.28 16.04 C2.57 16.04, 1.86 16.04, 1.09 16.04 M1.09 16.04 C0.36 16.04, 0 15.68, 0 14.95 M1.09 16.04 C0.36 16.04, 0 15.68, 0 14.95 M0 14.95 C0 12.03, 0 9.12, 0 1.09 M0 14.95 C0 10.5, 0 6.06, 0 1.09 M0 1.09 C0 0.36, 0.36 0, 1.09 0 M0 1.09 C0 0.36, 0.36 0, 1.09 0" stroke="#1e1e1e" stroke-width="1" fill="none"></path></g><g stroke-linecap="round" transform="translate(362.1356882760829 147.37669416842004) rotate(0 2.1872150249600395 8.01978842485343)"><path d="M1.09 0 C1.65 0, 2.2 0, 3.28 0 M1.09 0 C1.71 0, 2.33 0, 3.28 0 M3.28 0 C4.01 0, 4.37 0.36, 4.37 1.09 M3.28 0 C4.01 0, 4.37 0.36, 4.37 1.09 M4.37 1.09 C4.37 4.5, 4.37 7.92, 4.37 14.95 M4.37 1.09 C4.37 4.51, 4.37 7.93, 4.37 14.95 M4.37 14.95 C4.37 15.68, 4.01 16.04, 3.28 16.04 M4.37 14.95 C4.37 15.68, 4.01 16.04, 3.28 16.04 M3.28 16.04 C2.58 16.04, 1.88 16.04, 1.09 16.04 M3.28 16.04 C2.6 16.04, 1.92 16.04, 1.09 16.04 M1.09 16.04 C0.36 16.04, 0 15.68, 0 14.95 M1.09 16.04 C0.36 16.04, 0 15.68, 0 14.95 M0 14.95 C0 11.77, 0 8.6, 0 1.09 M0 14.95 C0 11.88, 0 8.82, 0 1.09 M0 1.09 C0 0.36, 0.36 0, 1.09 0 M0 1.09 C0 0.36, 0.36 0, 1.09 0" stroke="#1e1e1e" stroke-width="1" fill="none"></path></g><g stroke-linecap="round" transform="translate(368.616330331409 147.37669416842004) rotate(0 2.1872150249600395 8.01978842485343)"><path d="M1.09 0 C1.76 0, 2.42 0, 3.28 0 M1.09 0 C1.8 0, 2.51 0, 3.28 0 M3.28 0 C4.01 0, 4.37 0.36, 4.37 1.09 M3.28 0 C4.01 0, 4.37 0.36, 4.37 1.09 M4.37 1.09 C4.37 6.32, 4.37 11.54, 4.37 14.95 M4.37 1.09 C4.37 6.05, 4.37 11, 4.37 14.95 M4.37 14.95 C4.37 15.68, 4.01 16.04, 3.28 16.04 M4.37 14.95 C4.37 15.68, 4.01 16.04, 3.28 16.04 M3.28 16.04 C2.56 16.04, 1.84 16.04, 1.09 16.04 M3.28 16.04 C2.59 16.04, 1.89 16.04, 1.09 16.04 M1.09 16.04 C0.36 16.04, 0 15.68, 0 14.95 M1.09 16.04 C0.36 16.04, 0 15.68, 0 14.95 M0 14.95 C0 9.76, 0 4.58, 0 1.09 M0 14.95 C0 10.84, 0 6.73, 0 1.09 M0 1.09 C0 0.36, 0.36 0, 1.09 0 M0 1.09 C0 0.36, 0.36 0, 1.09 0" stroke="#1e1e1e" stroke-width="1" fill="none"></path></g><g stroke-linecap="round" transform="translate(345.63499288387584 142.92615507761604) rotate(0 15.510791699756965 11.985616535742821)"><path d="M0 0 C7.65 0, 15.29 0, 31.02 0 M0 0 C7.53 0, 15.07 0, 31.02 0 M31.02 0 C31.02 7.12, 31.02 14.24, 31.02 23.97 M31.02 0 C31.02 7.38, 31.02 14.75, 31.02 23.97 M31.02 23.97 C22.18 23.97, 13.34 23.97, 0 23.97 M31.02 23.97 C21.64 23.97, 12.26 23.97, 0 23.97 M0 23.97 C0 16.07, 0 8.18, 0 0 M0 23.97 C0 16.36, 0 8.75, 0 0" stroke="#1e1e1e" stroke-width="1" fill="none"></path></g><g stroke-linecap="round" transform="translate(349.33643245403914 116.17884636275676) rotate(0 2.1872150249600395 8.01978842485343)"><path d="M1.09 0 C1.57 0, 2.04 0, 3.28 0 M1.09 0 C1.91 0, 2.74 0, 3.28 0 M3.28 0 C4.01 0, 4.37 0.36, 4.37 1.09 M3.28 0 C4.01 0, 4.37 0.36, 4.37 1.09 M4.37 1.09 C4.37 4.12, 4.37 7.14, 4.37 14.95 M4.37 1.09 C4.37 6.36, 4.37 11.63, 4.37 14.95 M4.37 14.95 C4.37 15.68, 4.01 16.04, 3.28 16.04 M4.37 14.95 C4.37 15.68, 4.01 16.04, 3.28 16.04 M3.28 16.04 C2.43 16.04, 1.57 16.04, 1.09 16.04 M3.28 16.04 C2.57 16.04, 1.86 16.04, 1.09 16.04 M1.09 16.04 C0.36 16.04, 0 15.68, 0 14.95 M1.09 16.04 C0.36 16.04, 0 15.68, 0 14.95 M0 14.95 C0 10.85, 0 6.75, 0 1.09 M0 14.95 C0 9.86, 0 4.77, 0 1.09 M0 1.09 C0 0.36, 0.36 0, 1.09 0 M0 1.09 C0 0.36, 0.36 0, 1.09 0" stroke="#1e1e1e" stroke-width="1" fill="none"></path></g><g stroke-linecap="round" transform="translate(356.14109400408097 116.17884636275676) rotate(0 2.1872150249600395 8.01978842485343)"><path d="M1.09 0 C1.55 0, 2 0, 3.28 0 M1.09 0 C1.89 0, 2.69 0, 3.28 0 M3.28 0 C4.01 0, 4.37 0.36, 4.37 1.09 M3.28 0 C4.01 0, 4.37 0.36, 4.37 1.09 M4.37 1.09 C4.37 6.33, 4.37 11.56, 4.37 14.95 M4.37 1.09 C4.37 4.75, 4.37 8.4, 4.37 14.95 M4.37 14.95 C4.37 15.68, 4.01 16.04, 3.28 16.04 M4.37 14.95 C4.37 15.68, 4.01 16.04, 3.28 16.04 M3.28 16.04 C2.66 16.04, 2.04 16.04, 1.09 16.04 M3.28 16.04 C2.8 16.04, 2.33 16.04, 1.09 16.04 M1.09 16.04 C0.36 16.04, 0 15.68, 0 14.95 M1.09 16.04 C0.36 16.04, 0 15.68, 0 14.95 M0 14.95 C0 9.65, 0 4.35, 0 1.09 M0 14.95 C0 10.82, 0 6.69, 0 1.09 M0 1.09 C0 0.36, 0.36 0, 1.09 0 M0 1.09 C0 0.36, 0.36 0, 1.09 0" stroke="#1e1e1e" stroke-width="1" fill="none"></path></g><g stroke-linecap="round" transform="translate(362.1356882760829 116.17884636275676) rotate(0 2.1872150249600395 8.01978842485343)"><path d="M1.09 0 C1.55 0, 2.01 0, 3.28 0 M1.09 0 C1.59 0, 2.09 0, 3.28 0 M3.28 0 C4.01 0, 4.37 0.36, 4.37 1.09 M3.28 0 C4.01 0, 4.37 0.36, 4.37 1.09 M4.37 1.09 C4.37 5.04, 4.37 8.99, 4.37 14.95 M4.37 1.09 C4.37 5.28, 4.37 9.47, 4.37 14.95 M4.37 14.95 C4.37 15.68, 4.01 16.04, 3.28 16.04 M4.37 14.95 C4.37 15.68, 4.01 16.04, 3.28 16.04 M3.28 16.04 C2.42 16.04, 1.57 16.04, 1.09 16.04 M3.28 16.04 C2.76 16.04, 2.24 16.04, 1.09 16.04 M1.09 16.04 C0.36 16.04, 0 15.68, 0 14.95 M1.09 16.04 C0.36 16.04, 0 15.68, 0 14.95 M0 14.95 C0 10.92, 0 6.9, 0 1.09 M0 14.95 C0 12.17, 0 9.39, 0 1.09 M0 1.09 C0 0.36, 0.36 0, 1.09 0 M0 1.09 C0 0.36, 0.36 0, 1.09 0" stroke="#1e1e1e" stroke-width="1" fill="none"></path></g><g stroke-linecap="round" transform="translate(368.61633033140924 116.17884636275676) rotate(0 2.1872150249600395 8.01978842485343)"><path d="M1.09 0 C1.85 0, 2.62 0, 3.28 0 M1.09 0 C1.57 0, 2.04 0, 3.28 0 M3.28 0 C4.01 0, 4.37 0.36, 4.37 1.09 M3.28 0 C4.01 0, 4.37 0.36, 4.37 1.09 M4.37 1.09 C4.37 3.91, 4.37 6.72, 4.37 14.95 M4.37 1.09 C4.37 4.76, 4.37 8.42, 4.37 14.95 M4.37 14.95 C4.37 15.68, 4.01 16.04, 3.28 16.04 M4.37 14.95 C4.37 15.68, 4.01 16.04, 3.28 16.04 M3.28 16.04 C2.51 16.04, 1.74 16.04, 1.09 16.04 M3.28 16.04 C2.78 16.04, 2.29 16.04, 1.09 16.04 M1.09 16.04 C0.36 16.04, 0 15.68, 0 14.95 M1.09 16.04 C0.36 16.04, 0 15.68, 0 14.95 M0 14.95 C0 11.12, 0 7.29, 0 1.09 M0 14.95 C0 9.92, 0 4.9, 0 1.09 M0 1.09 C0 0.36, 0.36 0, 1.09 0 M0 1.09 C0 0.36, 0.36 0, 1.09 0" stroke="#1e1e1e" stroke-width="1" fill="none"></path></g><g stroke-linecap="round" transform="translate(345.63499288387584 111.72830727195276) rotate(0 15.510791699756965 11.985616535742821)"><path d="M0 0 C6.7 0, 13.4 0, 31.02 0 M0 0 C8.72 0, 17.44 0, 31.02 0 M31.02 0 C31.02 5.23, 31.02 10.46, 31.02 23.97 M31.02 0 C31.02 9.11, 31.02 18.23, 31.02 23.97 M31.02 23.97 C19.74 23.97, 8.45 23.97, 0 23.97 M31.02 23.97 C20.98 23.97, 10.94 23.97, 0 23.97 M0 23.97 C0 15.52, 0 7.06, 0 0 M0 23.97 C0 18.52, 0 13.06, 0 0" stroke="#1e1e1e" stroke-width="1" fill="none"></path></g><g stroke-linecap="round" transform="translate(309.57180810957357 82.84564091324444) rotate(0 2.1872150249600395 8.01978842485343)"><path d="M1.09 0 C1.57 0, 2.04 0, 3.28 0 M1.09 0 C1.82 0, 2.55 0, 3.28 0 M3.28 0 C4.01 0, 4.37 0.36, 4.37 1.09 M3.28 0 C4.01 0, 4.37 0.36, 4.37 1.09 M4.37 1.09 C4.37 6.38, 4.37 11.67, 4.37 14.95 M4.37 1.09 C4.37 4.19, 4.37 7.29, 4.37 14.95 M4.37 14.95 C4.37 15.68, 4.01 16.04, 3.28 16.04 M4.37 14.95 C4.37 15.68, 4.01 16.04, 3.28 16.04 M3.28 16.04 C2.8 16.04, 2.31 16.04, 1.09 16.04 M3.28 16.04 C2.53 16.04, 1.79 16.04, 1.09 16.04 M1.09 16.04 C0.36 16.04, 0 15.68, 0 14.95 M1.09 16.04 C0.36 16.04, 0 15.68, 0 14.95 M0 14.95 C0 10.97, 0 7, 0 1.09 M0 14.95 C0 11.03, 0 7.11, 0 1.09 M0 1.09 C0 0.36, 0.36 0, 1.09 0 M0 1.09 C0 0.36, 0.36 0, 1.09 0" stroke="#1e1e1e" stroke-width="1" fill="none"></path></g><g stroke-linecap="round" transform="translate(316.37646965961517 82.84564091324444) rotate(0 2.1872150249600395 8.01978842485343)"><path d="M1.09 0 C1.74 0, 2.39 0, 3.28 0 M1.09 0 C1.77 0, 2.44 0, 3.28 0 M3.28 0 C4.01 0, 4.37 0.36, 4.37 1.09 M3.28 0 C4.01 0, 4.37 0.36, 4.37 1.09 M4.37 1.09 C4.37 4.36, 4.37 7.63, 4.37 14.95 M4.37 1.09 C4.37 5.73, 4.37 10.37, 4.37 14.95 M4.37 14.95 C4.37 15.68, 4.01 16.04, 3.28 16.04 M4.37 14.95 C4.37 15.68, 4.01 16.04, 3.28 16.04 M3.28 16.04 C2.76 16.04, 2.23 16.04, 1.09 16.04 M3.28 16.04 C2.46 16.04, 1.65 16.04, 1.09 16.04 M1.09 16.04 C0.36 16.04, 0 15.68, 0 14.95 M1.09 16.04 C0.36 16.04, 0 15.68, 0 14.95 M0 14.95 C0 11.95, 0 8.96, 0 1.09 M0 14.95 C0 11.21, 0 7.47, 0 1.09 M0 1.09 C0 0.36, 0.36 0, 1.09 0 M0 1.09 C0 0.36, 0.36 0, 1.09 0" stroke="#1e1e1e" stroke-width="1" fill="none"></path></g><g stroke-linecap="round" transform="translate(322.3710639316172 82.84564091324444) rotate(0 2.1872150249600395 8.01978842485343)"><path d="M1.09 0 C1.73 0, 2.36 0, 3.28 0 M1.09 0 C1.58 0, 2.07 0, 3.28 0 M3.28 0 C4.01 0, 4.37 0.36, 4.37 1.09 M3.28 0 C4.01 0, 4.37 0.36, 4.37 1.09 M4.37 1.09 C4.37 6.13, 4.37 11.17, 4.37 14.95 M4.37 1.09 C4.37 5.58, 4.37 10.06, 4.37 14.95 M4.37 14.95 C4.37 15.68, 4.01 16.04, 3.28 16.04 M4.37 14.95 C4.37 15.68, 4.01 16.04, 3.28 16.04 M3.28 16.04 C2.82 16.04, 2.36 16.04, 1.09 16.04 M3.28 16.04 C2.58 16.04, 1.88 16.04, 1.09 16.04 M1.09 16.04 C0.36 16.04, 0 15.68, 0 14.95 M1.09 16.04 C0.36 16.04, 0 15.68, 0 14.95 M0 14.95 C0 10.69, 0 6.42, 0 1.09 M0 14.95 C0 10.81, 0 6.68, 0 1.09 M0 1.09 C0 0.36, 0.36 0, 1.09 0 M0 1.09 C0 0.36, 0.36 0, 1.09 0" stroke="#1e1e1e" stroke-width="1" fill="none"></path></g><g stroke-linecap="round" transform="translate(328.85170598694356 82.84564091324444) rotate(0 2.1872150249600395 8.01978842485343)"><path d="M1.09 0 C1.63 0, 2.17 0, 3.28 0 M1.09 0 C1.63 0, 2.17 0, 3.28 0 M3.28 0 C4.01 0, 4.37 0.36, 4.37 1.09 M3.28 0 C4.01 0, 4.37 0.36, 4.37 1.09 M4.37 1.09 C4.37 5.52, 4.37 9.95, 4.37 14.95 M4.37 1.09 C4.37 5.41, 4.37 9.73, 4.37 14.95 M4.37 14.95 C4.37 15.68, 4.01 16.04, 3.28 16.04 M4.37 14.95 C4.37 15.68, 4.01 16.04, 3.28 16.04 M3.28 16.04 C2.78 16.04, 2.28 16.04, 1.09 16.04 M3.28 16.04 C2.8 16.04, 2.31 16.04, 1.09 16.04 M1.09 16.04 C0.36 16.04, 0 15.68, 0 14.95 M1.09 16.04 C0.36 16.04, 0 15.68, 0 14.95 M0 14.95 C0 11.71, 0 8.47, 0 1.09 M0 14.95 C0 11, 0 7.06, 0 1.09 M0 1.09 C0 0.36, 0.36 0, 1.09 0 M0 1.09 C0 0.36, 0.36 0, 1.09 0" stroke="#1e1e1e" stroke-width="1" fill="none"></path></g><g stroke-linecap="round" transform="translate(305.87036853941015 78.39510182244041) rotate(0 15.510791699756965 11.985616535742835)"><path d="M0 0 C11.7 0, 23.39 0, 31.02 0 M0 0 C11.09 0, 22.18 0, 31.02 0 M31.02 0 C31.02 9.15, 31.02 18.31, 31.02 23.97 M31.02 0 C31.02 5.36, 31.02 10.71, 31.02 23.97 M31.02 23.97 C22.19 23.97, 13.35 23.97, 0 23.97 M31.02 23.97 C24.25 23.97, 17.47 23.97, 0 23.97 M0 23.97 C0 18.48, 0 12.98, 0 0 M0 23.97 C0 18.67, 0 13.38, 0 0" stroke="#1e1e1e" stroke-width="1" fill="none"></path></g><g stroke-linecap="round" transform="translate(309.57180810957357 51.64779310758121) rotate(0 2.1872150249600395 8.01978842485343)"><path d="M1.09 0 C1.94 0, 2.79 0, 3.28 0 M1.09 0 C1.54 0, 2 0, 3.28 0 M3.28 0 C4.01 0, 4.37 0.36, 4.37 1.09 M3.28 0 C4.01 0, 4.37 0.36, 4.37 1.09 M4.37 1.09 C4.37 4.23, 4.37 7.37, 4.37 14.95 M4.37 1.09 C4.37 5.54, 4.37 9.99, 4.37 14.95 M4.37 14.95 C4.37 15.68, 4.01 16.04, 3.28 16.04 M4.37 14.95 C4.37 15.68, 4.01 16.04, 3.28 16.04 M3.28 16.04 C2.75 16.04, 2.21 16.04, 1.09 16.04 M3.28 16.04 C2.8 16.04, 2.33 16.04, 1.09 16.04 M1.09 16.04 C0.36 16.04, 0 15.68, 0 14.95 M1.09 16.04 C0.36 16.04, 0 15.68, 0 14.95 M0 14.95 C0 10.83, 0 6.71, 0 1.09 M0 14.95 C0 11.89, 0 8.83, 0 1.09 M0 1.09 C0 0.36, 0.36 0, 1.09 0 M0 1.09 C0 0.36, 0.36 0, 1.09 0" stroke="#1e1e1e" stroke-width="1" fill="none"></path></g><g stroke-linecap="round" transform="translate(316.3764696596154 51.64779310758121) rotate(0 2.1872150249600395 8.01978842485343)"><path d="M1.09 0 C1.57 0, 2.05 0, 3.28 0 M1.09 0 C1.93 0, 2.76 0, 3.28 0 M3.28 0 C4.01 0, 4.37 0.36, 4.37 1.09 M3.28 0 C4.01 0, 4.37 0.36, 4.37 1.09 M4.37 1.09 C4.37 6.51, 4.37 11.92, 4.37 14.95 M4.37 1.09 C4.37 5.6, 4.37 10.1, 4.37 14.95 M4.37 14.95 C4.37 15.68, 4.01 16.04, 3.28 16.04 M4.37 14.95 C4.37 15.68, 4.01 16.04, 3.28 16.04 M3.28 16.04 C2.63 16.04, 1.99 16.04, 1.09 16.04 M3.28 16.04 C2.48 16.04, 1.67 16.04, 1.09 16.04 M1.09 16.04 C0.36 16.04, 0 15.68, 0 14.95 M1.09 16.04 C0.36 16.04, 0 15.68, 0 14.95 M0 14.95 C0 12.05, 0 9.16, 0 1.09 M0 14.95 C0 11.94, 0 8.94, 0 1.09 M0 1.09 C0 0.36, 0.36 0, 1.09 0 M0 1.09 C0 0.36, 0.36 0, 1.09 0" stroke="#1e1e1e" stroke-width="1" fill="none"></path></g><g stroke-linecap="round" transform="translate(322.3710639316172 51.64779310758121) rotate(0 2.1872150249600395 8.01978842485343)"><path d="M1.09 0 C1.92 0, 2.75 0, 3.28 0 M1.09 0 C1.67 0, 2.25 0, 3.28 0 M3.28 0 C4.01 0, 4.37 0.36, 4.37 1.09 M3.28 0 C4.01 0, 4.37 0.36, 4.37 1.09 M4.37 1.09 C4.37 5.04, 4.37 8.98, 4.37 14.95 M4.37 1.09 C4.37 4.12, 4.37 7.14, 4.37 14.95 M4.37 14.95 C4.37 15.68, 4.01 16.04, 3.28 16.04 M4.37 14.95 C4.37 15.68, 4.01 16.04, 3.28 16.04 M3.28 16.04 C2.44 16.04, 1.61 16.04, 1.09 16.04 M3.28 16.04 C2.63 16.04, 1.98 16.04, 1.09 16.04 M1.09 16.04 C0.36 16.04, 0 15.68, 0 14.95 M1.09 16.04 C0.36 16.04, 0 15.68, 0 14.95 M0 14.95 C0 9.7, 0 4.46, 0 1.09 M0 14.95 C0 9.56, 0 4.18, 0 1.09 M0 1.09 C0 0.36, 0.36 0, 1.09 0 M0 1.09 C0 0.36, 0.36 0, 1.09 0" stroke="#1e1e1e" stroke-width="1" fill="none"></path></g><g stroke-linecap="round" transform="translate(328.85170598694367 51.64779310758121) rotate(0 2.1872150249600395 8.01978842485343)"><path d="M1.09 0 C1.72 0, 2.34 0, 3.28 0 M1.09 0 C1.75 0, 2.42 0, 3.28 0 M3.28 0 C4.01 0, 4.37 0.36, 4.37 1.09 M3.28 0 C4.01 0, 4.37 0.36, 4.37 1.09 M4.37 1.09 C4.37 6.52, 4.37 11.94, 4.37 14.95 M4.37 1.09 C4.37 4.37, 4.37 7.66, 4.37 14.95 M4.37 14.95 C4.37 15.68, 4.01 16.04, 3.28 16.04 M4.37 14.95 C4.37 15.68, 4.01 16.04, 3.28 16.04 M3.28 16.04 C2.65 16.04, 2.01 16.04, 1.09 16.04 M3.28 16.04 C2.84 16.04, 2.4 16.04, 1.09 16.04 M1.09 16.04 C0.36 16.04, 0 15.68, 0 14.95 M1.09 16.04 C0.36 16.04, 0 15.68, 0 14.95 M0 14.95 C0 10.34, 0 5.74, 0 1.09 M0 14.95 C0 11.59, 0 8.23, 0 1.09 M0 1.09 C0 0.36, 0.36 0, 1.09 0 M0 1.09 C0 0.36, 0.36 0, 1.09 0" stroke="#1e1e1e" stroke-width="1" fill="none"></path></g><g stroke-linecap="round" transform="translate(305.87036853941015 47.19725401677715) rotate(0 15.510791699756965 11.985616535742821)"><path d="M0 0 C6.3 0, 12.6 0, 31.02 0 M0 0 C8.21 0, 16.42 0, 31.02 0 M31.02 0 C31.02 5.43, 31.02 10.87, 31.02 23.97 M31.02 0 C31.02 7.7, 31.02 15.39, 31.02 23.97 M31.02 23.97 C23.6 23.97, 16.18 23.97, 0 23.97 M31.02 23.97 C19.44 23.97, 7.86 23.97, 0 23.97 M0 23.97 C0 17.01, 0 10.05, 0 0 M0 23.97 C0 19.16, 0 14.36, 0 0" stroke="#1e1e1e" stroke-width="1" fill="none"></path></g><g transform="translate(312.2999773382212 15.195604603563197) rotate(0 29.362342834472656 15.770035624678968)"><text x="29.362342834472656" y="0" font-family="Virgil, Segoe UI Emoji" font-size="12.61602849974318px" fill="#1e1e1e" text-anchor="middle" style="white-space: pre;" direction="ltr" dominant-baseline="text-before-edge">Redpanda</text><text x="29.362342834472656" y="15.770035624678975" font-family="Virgil, Segoe UI Emoji" font-size="12.61602849974318px" fill="#1e1e1e" text-anchor="middle" style="white-space: pre;" direction="ltr" dominant-baseline="text-before-edge">Cluster</text></g><g stroke-opacity="0.9" fill-opacity="0.9" transform="translate(242.93474578857422 14.333358764648438) rotate(0 14.731971740722656 5.800525407407008)"><text x="14.731971740722656" y="0" font-family="Virgil, Segoe UI Emoji" font-size="9.280840651851221px" fill="#1e1e1e" text-anchor="middle" style="white-space: pre;" direction="ltr" dominant-baseline="text-before-edge">Broker</text></g><g stroke-opacity="0.9" fill-opacity="0.9" transform="translate(400.07997131347656 15.934409579462454) rotate(0 12.459976196289062 5)"><text x="12.459976196289062" y="0" font-family="Virgil, Segoe UI Emoji" font-size="7.999999999999998px" fill="#1e1e1e" text-anchor="middle" style="white-space: pre;" direction="ltr" dominant-baseline="text-before-edge">Topics</text></g><g stroke-linecap="round"><g stroke-opacity="0.9" fill-opacity="0.9" transform="translate(305 59.33335876464844) rotate(0 -23.666656494140625 -13.166656494140625)"><path d="M0 0 C-16.54 0.23, -33.07 0.47, -47.33 0.67 M0 0 C-10.54 0.15, -21.08 0.3, -47.33 0.67 M-47.33 0.67 C-47.29 -7.08, -47.25 -14.82, -47.18 -27 M-47.33 0.67 C-47.28 -8.62, -47.23 -17.9, -47.18 -27" stroke="#1e1e1e" stroke-width="1" fill="none"></path></g><g stroke-opacity="0.9" fill-opacity="0.9" transform="translate(305 59.33335876464844) rotate(0 -23.666656494140625 -13.166656494140625)"><path d="M-42.52 -13.97 C-44.15 -18.53, -45.78 -23.08, -47.18 -27 M-42.52 -13.97 C-43.56 -16.87, -44.6 -19.77, -47.18 -27" stroke="#1e1e1e" stroke-width="1" fill="none"></path></g><g stroke-opacity="0.9" fill-opacity="0.9" transform="translate(305 59.33335876464844) rotate(0 -23.666656494140625 -13.166656494140625)"><path d="M-51.98 -14.03 C-50.31 -18.56, -48.63 -23.09, -47.18 -27 M-51.98 -14.03 C-50.91 -16.92, -49.85 -19.8, -47.18 -27" stroke="#1e1e1e" stroke-width="1" fill="none"></path></g></g><mask></mask><g stroke-linecap="round"><g stroke-opacity="0.9" fill-opacity="0.9" transform="translate(371.3332824707031 58.166656494140625) rotate(0 22.66668701171875 -13.83331298828125)"><path d="M0 0 C10.8 0, 21.61 0, 45.33 0 M0 0 C15.87 0, 31.73 0, 45.33 0 M45.33 0 C45.13 -10.78, 44.93 -21.56, 44.82 -27.67 M45.33 0 C45.19 -7.66, 45.05 -15.33, 44.82 -27.67" stroke="#1e1e1e" stroke-width="1" fill="none"></path></g><g stroke-opacity="0.9" fill-opacity="0.9" transform="translate(371.3332824707031 58.166656494140625) rotate(0 22.66668701171875 -13.83331298828125)"><path d="M49.79 -14.76 C48.61 -17.83, 47.42 -20.91, 44.82 -27.67 M49.79 -14.76 C48.05 -19.27, 46.31 -23.79, 44.82 -27.67" stroke="#1e1e1e" stroke-width="1" fill="none"></path></g><g stroke-opacity="0.9" fill-opacity="0.9" transform="translate(371.3332824707031 58.166656494140625) rotate(0 22.66668701171875 -13.83331298828125)"><path d="M40.33 -14.58 C41.4 -17.7, 42.47 -20.82, 44.82 -27.67 M40.33 -14.58 C41.9 -19.16, 43.47 -23.74, 44.82 -27.67" stroke="#1e1e1e" stroke-width="1" fill="none"></path></g></g><mask></mask><g stroke-linecap="round" transform="translate(565.406365984999 15.415271636807176) rotate(0 44.66398562583464 92.58471310440376)"><path d="M0 0 C31.95 0, 63.89 0, 89.33 0 M0 0 C18 0, 36.01 0, 89.33 0 M89.33 0 C89.33 61.02, 89.33 122.04, 89.33 185.17 M89.33 0 C89.33 38.51, 89.33 77.01, 89.33 185.17 M89.33 185.17 C67.68 185.17, 46.04 185.17, 0 185.17 M89.33 185.17 C68.5 185.17, 47.68 185.17, 0 185.17 M0 185.17 C0 126.88, 0 68.6, 0 0 M0 185.17 C0 115.22, 0 45.27, 0 0" stroke="#1e1e1e" stroke-width="1" fill="none"></path></g><g stroke-linecap="round" transform="translate(583.1568053590165 20.67406107242718) rotate(0 25.726112438642872 14.741930863402175)"><path d="M0 0 C12.4 0, 24.8 0, 51.45 0 M0 0 C11.3 0, 22.59 0, 51.45 0 M51.45 0 C51.45 7.82, 51.45 15.64, 51.45 29.48 M51.45 0 C51.45 6.62, 51.45 13.24, 51.45 29.48 M51.45 29.48 C39.32 29.48, 27.19 29.48, 0 29.48 M51.45 29.48 C38.37 29.48, 25.28 29.48, 0 29.48 M0 29.48 C0 18.35, 0 7.22, 0 0 M0 29.48 C0 21.13, 0 12.78, 0 0" stroke="#1e1e1e" stroke-width="1" fill="none"></path></g><g transform="translate(593.4369110227572 26.4552016092903) rotate(0 15.446006774902344 8.878354968161545)"><text x="15.446006774902344" y="0" font-family="Virgil, Segoe UI Emoji" font-size="7.102683974529236px" fill="#1e1e1e" text-anchor="middle" style="white-space: pre;" direction="ltr" dominant-baseline="text-before-edge">Analytics</text><text x="15.446006774902344" y="8.878354968161545" font-family="Virgil, Segoe UI Emoji" font-size="7.102683974529236px" fill="#1e1e1e" text-anchor="middle" style="white-space: pre;" direction="ltr" dominant-baseline="text-before-edge">DB</text></g><g stroke-linecap="round" transform="translate(583.1568053590165 67.21229135257792) rotate(0 25.726112438642872 14.741930863402175)"><path d="M0 0 C18.09 0, 36.18 0, 51.45 0 M0 0 C14.99 0, 29.98 0, 51.45 0 M51.45 0 C51.45 10.84, 51.45 21.68, 51.45 29.48 M51.45 0 C51.45 8.28, 51.45 16.56, 51.45 29.48 M51.45 29.48 C37.99 29.48, 24.53 29.48, 0 29.48 M51.45 29.48 C34.21 29.48, 16.96 29.48, 0 29.48 M0 29.48 C0 17.75, 0 6.01, 0 0 M0 29.48 C0 17.75, 0 6.02, 0 0" stroke="#1e1e1e" stroke-width="1" fill="none"></path></g><g transform="translate(598.1672119260775 75.10284838900853) rotate(0 10.715705871582031 8.16843457408784)"><text x="10.715705871582031" y="0" font-family="Virgil, Segoe UI Emoji" font-size="6.5347476592702725px" fill="#1e1e1e" text-anchor="middle" style="white-space: pre;" direction="ltr" dominant-baseline="text-before-edge">NOSQL</text><text x="10.715705871582031" y="8.16843457408784" font-family="Virgil, Segoe UI Emoji" font-size="6.5347476592702725px" fill="#1e1e1e" text-anchor="middle" style="white-space: pre;" direction="ltr" dominant-baseline="text-before-edge">DB</text></g><g stroke-linecap="round" transform="translate(583.1568053590165 115.48490613618998) rotate(0 25.726112438642872 16.73466183286064)"><path d="M0 0 C19.9 0, 39.8 0, 51.45 0 M0 0 C13.35 0, 26.71 0, 51.45 0 M51.45 0 C51.45 8.92, 51.45 17.84, 51.45 33.47 M51.45 0 C51.45 11.46, 51.45 22.93, 51.45 33.47 M51.45 33.47 C38.41 33.47, 25.36 33.47, 0 33.47 M51.45 33.47 C32.75 33.47, 14.05 33.47, 0 33.47 M0 33.47 C0 23.76, 0 14.06, 0 0 M0 33.47 C0 20.15, 0 6.83, 0 0" stroke="#1e1e1e" stroke-width="1" fill="none"></path></g><g transform="translate(591.3923629880892 124.37546317262058) rotate(0 17.490554809570312 8.168434574087826)"><text x="17.490554809570312" y="0" font-family="Virgil, Segoe UI Emoji" font-size="6.5347476592702725px" fill="#1e1e1e" text-anchor="middle" style="white-space: pre;" direction="ltr" dominant-baseline="text-before-edge">Relationnal</text><text x="17.490554809570312" y="8.16843457408784" font-family="Virgil, Segoe UI Emoji" font-size="6.5347476592702725px" fill="#1e1e1e" text-anchor="middle" style="white-space: pre;" direction="ltr" dominant-baseline="text-before-edge">DB</text></g><g stroke-linecap="round" transform="translate(583.1568053590165 164.0465607450442) rotate(0 25.726112438642872 15.175517065266945)"><path d="M0 0 C16.95 0, 33.91 0, 51.45 0 M0 0 C10.7 0, 21.4 0, 51.45 0 M51.45 0 C51.45 7.35, 51.45 14.71, 51.45 30.35 M51.45 0 C51.45 7.08, 51.45 14.15, 51.45 30.35 M51.45 30.35 C35.26 30.35, 19.06 30.35, 0 30.35 M51.45 30.35 C32.02 30.35, 12.58 30.35, 0 30.35 M0 30.35 C0 21.12, 0 11.88, 0 0 M0 30.35 C0 23.93, 0 17.5, 0 0" stroke="#1e1e1e" stroke-width="1" fill="none"></path></g><g transform="translate(593.7431549192415 170.93711778147497) rotate(0 15.139762878417969 8.168434574087826)"><text x="15.139762878417969" y="0" font-family="Virgil, Segoe UI Emoji" font-size="6.5347476592702725px" fill="#1e1e1e" text-anchor="middle" style="white-space: pre;" direction="ltr" dominant-baseline="text-before-edge">Streaming</text><text x="15.139762878417969" y="8.16843457408784" font-family="Virgil, Segoe UI Emoji" font-size="6.5347476592702725px" fill="#1e1e1e" text-anchor="middle" style="white-space: pre;" direction="ltr" dominant-baseline="text-before-edge">Platform</text></g><g stroke-linecap="round"><g transform="translate(507.90876106482324 91.85528073677983) rotate(0 21.77769151188835 0.15363745703004383)"><path d="M0 0 C16.45 0.12, 32.91 0.23, 43.56 0.31 M0 0 C11.94 0.08, 23.89 0.17, 43.56 0.31" stroke="#1e1e1e" stroke-width="1" fill="none"></path></g><g transform="translate(507.90876106482324 91.85528073677983) rotate(0 21.77769151188835 0.15363745703004383)"><path d="M23.04 7.61 C30.79 4.85, 38.54 2.09, 43.56 0.31 M23.04 7.61 C28.66 5.61, 34.29 3.61, 43.56 0.31" stroke="#1e1e1e" stroke-width="1" fill="none"></path></g><g transform="translate(507.90876106482324 91.85528073677983) rotate(0 21.77769151188835 0.15363745703004383)"><path d="M23.14 -7.29 C30.85 -4.42, 38.57 -1.55, 43.56 0.31 M23.14 -7.29 C28.74 -5.2, 34.34 -3.12, 43.56 0.31" stroke="#1e1e1e" stroke-width="1" fill="none"></path></g></g><mask></mask><g stroke-linecap="round"><g transform="translate(509.3556393335425 105.8986399569958) rotate(0 21.05425237752877 0.5661757688665148)"><path d="M0 0 C14.45 0.39, 28.9 0.78, 42.11 1.13 M0 0 C15.69 0.42, 31.39 0.84, 42.11 1.13" stroke="#1e1e1e" stroke-width="1" fill="none"></path></g><g transform="translate(509.3556393335425 105.8986399569958) rotate(0 21.05425237752877 0.5661757688665148)"><path d="M22.13 7.8 C28.99 5.51, 35.84 3.22, 42.11 1.13 M22.13 7.8 C29.58 5.32, 37.02 2.83, 42.11 1.13" stroke="#1e1e1e" stroke-width="1" fill="none"></path></g><g transform="translate(509.3556393335425 105.8986399569958) rotate(0 21.05425237752877 0.5661757688665148)"><path d="M22.52 -6.6 C29.24 -3.95, 35.96 -1.29, 42.11 1.13 M22.52 -6.6 C29.82 -3.72, 37.12 -0.84, 42.11 1.13" stroke="#1e1e1e" stroke-width="1" fill="none"></path></g></g><mask></mask><g stroke-linecap="round"><g transform="translate(509.4475376782915 120.74049741831817) rotate(0 21.00830320515422 0.457598644567355)"><path d="M0 0 C13.65 0.3, 27.3 0.59, 42.02 0.92 M0 0 C9.69 0.21, 19.37 0.42, 42.02 0.92" stroke="#1e1e1e" stroke-width="1" fill="none"></path></g><g transform="translate(509.4475376782915 120.74049741831817) rotate(0 21.00830320515422 0.457598644567355)"><path d="M22.12 7.67 C28.58 5.48, 35.05 3.28, 42.02 0.92 M22.12 7.67 C26.71 6.11, 31.29 4.56, 42.02 0.92" stroke="#1e1e1e" stroke-width="1" fill="none"></path></g><g transform="translate(509.4475376782915 120.74049741831817) rotate(0 21.00830320515422 0.457598644567355)"><path d="M22.43 -6.7 C28.79 -4.23, 35.16 -1.75, 42.02 0.92 M22.43 -6.7 C26.95 -4.94, 31.46 -3.19, 42.02 0.92" stroke="#1e1e1e" stroke-width="1" fill="none"></path></g></g><mask></mask><g stroke-linecap="round"><g transform="translate(509.4138028550966 135.86989199852695) rotate(0 21.02517061675161 -0.08558479002235231)"><path d="M0 0 C14.42 -0.06, 28.84 -0.12, 42.05 -0.17 M0 0 C16.13 -0.07, 32.25 -0.13, 42.05 -0.17" stroke="#1e1e1e" stroke-width="1" fill="none"></path></g><g transform="translate(509.4138028550966 135.86989199852695) rotate(0 21.02517061675161 -0.08558479002235231)"><path d="M22.32 7.1 C29.09 4.61, 35.85 2.11, 42.05 -0.17 M22.32 7.1 C29.89 4.31, 37.45 1.52, 42.05 -0.17" stroke="#1e1e1e" stroke-width="1" fill="none"></path></g><g transform="translate(509.4138028550966 135.86989199852695) rotate(0 21.02517061675161 -0.08558479002235231)"><path d="M22.26 -7.28 C29.05 -4.84, 35.83 -2.4, 42.05 -0.17 M22.26 -7.28 C29.85 -4.55, 37.44 -1.83, 42.05 -0.17" stroke="#1e1e1e" stroke-width="1" fill="none"></path></g></g><mask></mask></svg>