<?xml version="1.0" encoding="us-ascii" standalone="no"?><svg xmlns="http://www.w3.org/2000/svg" xmlns:xlink="http://www.w3.org/1999/xlink" contentStyleType="text/css" height="422px" preserveAspectRatio="none" style="width:385px;height:422px;" version="1.1" viewBox="0 0 385 422" width="385px" zoomAndPan="magnify"><defs><linearGradient id="g1djibrmck9h3e0" x1="0%" x2="100%" y1="0%" y2="100%"><stop offset="0%" stop-color="#FFFCE8"/><stop offset="100%" stop-color="#F8F9FA"/></linearGradient></defs><g><rect fill="url(#g1djibrmck9h3e0)" height="422" style="stroke:none;stroke-width:1.0;" width="385" x="0" y="0"/><!--class DataLoaderService--><g id="elem_DataLoaderService"><rect codeLine="11" fill="#FFFCE8" height="58.6211" id="DataLoaderService" rx="2.5" ry="2.5" style="stroke:#000000;stroke-width:0.5;" width="154" x="191.5" y="7"/><ellipse cx="206.5" cy="23" fill="#ADD1B2" rx="11" ry="11" style="stroke:#181818;stroke-width:1.0;"/><path d="M209.2656,18.875 Q209.4219,18.6563 209.6094,18.5469 Q209.7969,18.4375 210.0156,18.4375 Q210.3906,18.4375 210.625,18.7031 Q210.8594,18.9531 210.8594,19.5625 L210.8594,21.0156 Q210.8594,21.625 210.625,21.8906 Q210.3906,22.1563 210.0156,22.1563 Q209.6719,22.1563 209.4688,21.9531 Q209.2656,21.7656 209.1563,21.25 Q209.1094,20.8906 208.9219,20.7031 Q208.5938,20.3281 207.9844,20.1094 Q207.375,19.8906 206.75,19.8906 Q205.9844,19.8906 205.3438,20.2188 Q204.7188,20.5469 204.2188,21.2969 Q203.7344,22.0469 203.7344,23.0781 L203.7344,24.1719 Q203.7344,25.4063 204.625,26.2344 Q205.5156,27.0469 207.1094,27.0469 Q208.0469,27.0469 208.7031,26.7969 Q209.0938,26.6406 209.5156,26.2031 Q209.7813,25.9375 209.9219,25.8594 Q210.0781,25.7813 210.2813,25.7813 Q210.6094,25.7813 210.8594,26.0469 Q211.125,26.2969 211.125,26.6406 Q211.125,26.9844 210.7813,27.3906 Q210.2813,27.9688 209.4844,28.2969 Q208.4063,28.75 207.1094,28.75 Q205.5938,28.75 204.3906,28.125 Q203.4063,27.625 202.7188,26.5625 Q202.0313,25.4844 202.0313,24.2031 L202.0313,23.0469 Q202.0313,21.7188 202.6406,20.5781 Q203.2656,19.4219 204.3594,18.8125 Q205.4531,18.1875 206.6875,18.1875 Q207.4219,18.1875 208.0625,18.3594 Q208.7188,18.5156 209.2656,18.875 Z " fill="#000000"/><text fill="#000000" font-family="sans-serif" font-size="14" lengthAdjust="spacing" textLength="122" x="220.5" y="28.7969">DataLoaderService</text><line style="stroke:#000000;stroke-width:0.5;" x1="192.5" x2="344.5" y1="39" y2="39"/><ellipse cx="202.5" cy="53.8105" fill="#84BE84" rx="3" ry="3" style="stroke:#038048;stroke-width:1.0;"/><text fill="#000000" font-family="sans-serif" font-size="14" lengthAdjust="spacing" textLength="37" x="211.5" y="58.1074">load()</text></g><!--class DocumentReader--><g id="elem_DocumentReader"><rect codeLine="14" fill="#FFFCE8" height="58.6211" id="DocumentReader" rx="2.5" ry="2.5" style="stroke:#000000;stroke-width:0.5;" width="143" x="208" y="338.5"/><ellipse cx="223" cy="354.5" fill="#B4A7E5" rx="11" ry="11" style="stroke:#181818;stroke-width:1.0;"/><path d="M223.9531,351.1406 L223.9531,357.7969 L225.6719,357.7969 Q226.2813,357.7969 226.5469,358.0313 Q226.8125,358.2656 226.8125,358.6563 Q226.8125,359.0313 226.5469,359.2656 Q226.2813,359.5 225.6719,359.5 L220.5313,359.5 Q219.9219,359.5 219.6563,359.2656 Q219.3906,359.0313 219.3906,358.6406 Q219.3906,358.2656 219.6563,358.0313 Q219.9219,357.7969 220.5313,357.7969 L222.25,357.7969 L222.25,351.1406 L220.5313,351.1406 Q219.9219,351.1406 219.6563,350.9063 Q219.3906,350.6719 219.3906,350.2813 Q219.3906,349.9063 219.6563,349.6719 Q219.9219,349.4375 220.5313,349.4375 L225.6719,349.4375 Q226.2813,349.4375 226.5469,349.6719 Q226.8125,349.9063 226.8125,350.2813 Q226.8125,350.6719 226.5469,350.9063 Q226.2813,351.1406 225.6719,351.1406 L223.9531,351.1406 Z " fill="#000000"/><text fill="#000000" font-family="sans-serif" font-size="14" font-style="italic" lengthAdjust="spacing" textLength="111" x="237" y="360.2969">DocumentReader</text><line style="stroke:#000000;stroke-width:0.5;" x1="209" x2="350" y1="370.5" y2="370.5"/><ellipse cx="219" cy="385.3105" fill="#84BE84" rx="3" ry="3" style="stroke:#038048;stroke-width:1.0;"/><text fill="#000000" font-family="sans-serif" font-size="14" lengthAdjust="spacing" textLength="30" x="228" y="389.6074">get()</text></g><!--class PagePdfDocumentReader--><g id="elem_PagePdfDocumentReader"><rect codeLine="17" fill="#FFFCE8" height="58.6211" id="PagePdfDocumentReader" rx="2.5" ry="2.5" style="stroke:#000000;stroke-width:0.5;" width="197" x="181" y="163.5"/><ellipse cx="196" cy="179.5" fill="#ADD1B2" rx="11" ry="11" style="stroke:#181818;stroke-width:1.0;"/><path d="M198.7656,175.375 Q198.9219,175.1563 199.1094,175.0469 Q199.2969,174.9375 199.5156,174.9375 Q199.8906,174.9375 200.125,175.2031 Q200.3594,175.4531 200.3594,176.0625 L200.3594,177.5156 Q200.3594,178.125 200.125,178.3906 Q199.8906,178.6563 199.5156,178.6563 Q199.1719,178.6563 198.9688,178.4531 Q198.7656,178.2656 198.6563,177.75 Q198.6094,177.3906 198.4219,177.2031 Q198.0938,176.8281 197.4844,176.6094 Q196.875,176.3906 196.25,176.3906 Q195.4844,176.3906 194.8438,176.7188 Q194.2188,177.0469 193.7188,177.7969 Q193.2344,178.5469 193.2344,179.5781 L193.2344,180.6719 Q193.2344,181.9063 194.125,182.7344 Q195.0156,183.5469 196.6094,183.5469 Q197.5469,183.5469 198.2031,183.2969 Q198.5938,183.1406 199.0156,182.7031 Q199.2813,182.4375 199.4219,182.3594 Q199.5781,182.2813 199.7813,182.2813 Q200.1094,182.2813 200.3594,182.5469 Q200.625,182.7969 200.625,183.1406 Q200.625,183.4844 200.2813,183.8906 Q199.7813,184.4688 198.9844,184.7969 Q197.9063,185.25 196.6094,185.25 Q195.0938,185.25 193.8906,184.625 Q192.9063,184.125 192.2188,183.0625 Q191.5313,181.9844 191.5313,180.7031 L191.5313,179.5469 Q191.5313,178.2188 192.1406,177.0781 Q192.7656,175.9219 193.8594,175.3125 Q194.9531,174.6875 196.1875,174.6875 Q196.9219,174.6875 197.5625,174.8594 Q198.2188,175.0156 198.7656,175.375 Z " fill="#000000"/><text fill="#000000" font-family="sans-serif" font-size="14" lengthAdjust="spacing" textLength="165" x="210" y="185.2969">PagePdfDocumentReader</text><line style="stroke:#000000;stroke-width:0.5;" x1="182" x2="377" y1="195.5" y2="195.5"/><ellipse cx="192" cy="210.3105" fill="#84BE84" rx="3" ry="3" style="stroke:#038048;stroke-width:1.0;"/><text fill="#000000" font-family="sans-serif" font-size="14" lengthAdjust="spacing" textLength="30" x="201" y="214.6074">get()</text></g><!--class VectorStore--><g id="elem_VectorStore"><rect codeLine="20" fill="#FFFCE8" height="95.8633" id="VectorStore" rx="2.5" ry="2.5" style="stroke:#000000;stroke-width:0.5;" width="135" x="11" y="145"/><ellipse cx="38.6" cy="161" fill="#B4A7E5" rx="11" ry="11" style="stroke:#181818;stroke-width:1.0;"/><path d="M39.5531,157.6406 L39.5531,164.2969 L41.2719,164.2969 Q41.8813,164.2969 42.1469,164.5313 Q42.4125,164.7656 42.4125,165.1563 Q42.4125,165.5313 42.1469,165.7656 Q41.8813,166 41.2719,166 L36.1313,166 Q35.5219,166 35.2563,165.7656 Q34.9906,165.5313 34.9906,165.1406 Q34.9906,164.7656 35.2563,164.5313 Q35.5219,164.2969 36.1313,164.2969 L37.85,164.2969 L37.85,157.6406 L36.1313,157.6406 Q35.5219,157.6406 35.2563,157.4063 Q34.9906,157.1719 34.9906,156.7813 Q34.9906,156.4063 35.2563,156.1719 Q35.5219,155.9375 36.1313,155.9375 L41.2719,155.9375 Q41.8813,155.9375 42.1469,156.1719 Q42.4125,156.4063 42.4125,156.7813 Q42.4125,157.1719 42.1469,157.4063 Q41.8813,157.6406 41.2719,157.6406 L39.5531,157.6406 Z " fill="#000000"/><text fill="#000000" font-family="sans-serif" font-size="14" font-style="italic" lengthAdjust="spacing" textLength="75" x="55.4" y="166.7969">VectorStore</text><line style="stroke:#000000;stroke-width:0.5;" x1="12" x2="145" y1="177" y2="177"/><ellipse cx="22" cy="191.8105" fill="#84BE84" rx="3" ry="3" style="stroke:#038048;stroke-width:1.0;"/><text fill="#000000" font-family="sans-serif" font-size="14" lengthAdjust="spacing" textLength="52" x="31" y="196.1074">accept()</text><ellipse cx="22" cy="210.4316" fill="#84BE84" rx="3" ry="3" style="stroke:#038048;stroke-width:1.0;"/><text fill="#000000" font-family="sans-serif" font-size="14" lengthAdjust="spacing" textLength="49" x="31" y="214.7285">delete()</text><ellipse cx="22" cy="229.0527" fill="#84BE84" rx="3" ry="3" style="stroke:#038048;stroke-width:1.0;"/><text fill="#000000" font-family="sans-serif" font-size="14" lengthAdjust="spacing" textLength="109" x="31" y="233.3496">similaritySearch()</text></g><!--class DocumentWriter--><g id="elem_DocumentWriter"><rect codeLine="25" fill="#FFFCE8" height="58.6211" id="DocumentWriter" rx="2.5" ry="2.5" style="stroke:#000000;stroke-width:0.5;" width="135" x="11" y="7"/><ellipse cx="26" cy="23" fill="#B4A7E5" rx="11" ry="11" style="stroke:#181818;stroke-width:1.0;"/><path d="M26.9531,19.6406 L26.9531,26.2969 L28.6719,26.2969 Q29.2813,26.2969 29.5469,26.5313 Q29.8125,26.7656 29.8125,27.1563 Q29.8125,27.5313 29.5469,27.7656 Q29.2813,28 28.6719,28 L23.5313,28 Q22.9219,28 22.6563,27.7656 Q22.3906,27.5313 22.3906,27.1406 Q22.3906,26.7656 22.6563,26.5313 Q22.9219,26.2969 23.5313,26.2969 L25.25,26.2969 L25.25,19.6406 L23.5313,19.6406 Q22.9219,19.6406 22.6563,19.4063 Q22.3906,19.1719 22.3906,18.7813 Q22.3906,18.4063 22.6563,18.1719 Q22.9219,17.9375 23.5313,17.9375 L28.6719,17.9375 Q29.2813,17.9375 29.5469,18.1719 Q29.8125,18.4063 29.8125,18.7813 Q29.8125,19.1719 29.5469,19.4063 Q29.2813,19.6406 28.6719,19.6406 L26.9531,19.6406 Z " fill="#000000"/><text fill="#000000" font-family="sans-serif" font-size="14" font-style="italic" lengthAdjust="spacing" textLength="103" x="40" y="28.7969">DocumentWriter</text><line style="stroke:#000000;stroke-width:0.5;" x1="12" x2="145" y1="39" y2="39"/><ellipse cx="22" cy="53.8105" fill="#84BE84" rx="3" ry="3" style="stroke:#038048;stroke-width:1.0;"/><text fill="#000000" font-family="sans-serif" font-size="14" lengthAdjust="spacing" textLength="52" x="31" y="58.1074">accept()</text></g><!--class RedisVectorStore--><g id="elem_RedisVectorStore"><rect codeLine="28" fill="#FFFCE8" height="95.8633" id="RedisVectorStore" rx="2.5" ry="2.5" style="stroke:#000000;stroke-width:0.5;" width="143" x="7" y="320"/><ellipse cx="22" cy="336" fill="#ADD1B2" rx="11" ry="11" style="stroke:#181818;stroke-width:1.0;"/><path d="M24.7656,331.875 Q24.9219,331.6563 25.1094,331.5469 Q25.2969,331.4375 25.5156,331.4375 Q25.8906,331.4375 26.125,331.7031 Q26.3594,331.9531 26.3594,332.5625 L26.3594,334.0156 Q26.3594,334.625 26.125,334.8906 Q25.8906,335.1563 25.5156,335.1563 Q25.1719,335.1563 24.9688,334.9531 Q24.7656,334.7656 24.6563,334.25 Q24.6094,333.8906 24.4219,333.7031 Q24.0938,333.3281 23.4844,333.1094 Q22.875,332.8906 22.25,332.8906 Q21.4844,332.8906 20.8438,333.2188 Q20.2188,333.5469 19.7188,334.2969 Q19.2344,335.0469 19.2344,336.0781 L19.2344,337.1719 Q19.2344,338.4063 20.125,339.2344 Q21.0156,340.0469 22.6094,340.0469 Q23.5469,340.0469 24.2031,339.7969 Q24.5938,339.6406 25.0156,339.2031 Q25.2813,338.9375 25.4219,338.8594 Q25.5781,338.7813 25.7813,338.7813 Q26.1094,338.7813 26.3594,339.0469 Q26.625,339.2969 26.625,339.6406 Q26.625,339.9844 26.2813,340.3906 Q25.7813,340.9688 24.9844,341.2969 Q23.9063,341.75 22.6094,341.75 Q21.0938,341.75 19.8906,341.125 Q18.9063,340.625 18.2188,339.5625 Q17.5313,338.4844 17.5313,337.2031 L17.5313,336.0469 Q17.5313,334.7188 18.1406,333.5781 Q18.7656,332.4219 19.8594,331.8125 Q20.9531,331.1875 22.1875,331.1875 Q22.9219,331.1875 23.5625,331.3594 Q24.2188,331.5156 24.7656,331.875 Z " fill="#000000"/><text fill="#000000" font-family="sans-serif" font-size="14" lengthAdjust="spacing" textLength="111" x="36" y="341.7969">RedisVectorStore</text><line style="stroke:#000000;stroke-width:0.5;" x1="8" x2="149" y1="352" y2="352"/><ellipse cx="18" cy="366.8105" fill="#84BE84" rx="3" ry="3" style="stroke:#038048;stroke-width:1.0;"/><text fill="#000000" font-family="sans-serif" font-size="14" lengthAdjust="spacing" textLength="52" x="27" y="371.1074">accept()</text><ellipse cx="18" cy="385.4316" fill="#84BE84" rx="3" ry="3" style="stroke:#038048;stroke-width:1.0;"/><text fill="#000000" font-family="sans-serif" font-size="14" lengthAdjust="spacing" textLength="49" x="27" y="389.7285">delete()</text><ellipse cx="18" cy="404.0527" fill="#84BE84" rx="3" ry="3" style="stroke:#038048;stroke-width:1.0;"/><text fill="#000000" font-family="sans-serif" font-size="14" lengthAdjust="spacing" textLength="109" x="27" y="408.3496">similaritySearch()</text></g><!--link DataLoaderService to PagePdfDocumentReader--><g id="link_DataLoaderService_PagePdfDocumentReader"><path codeLine="33" d="M270.54,66.2 C272.52,93.95 275.0744,129.7751 277.0444,157.4751 " fill="none" id="DataLoaderService-to-PagePdfDocumentReader" style="stroke:#2E8B57;stroke-width:1.0;"/><polygon fill="#2E8B57" points="277.47,163.46,280.8215,154.1989,277.1153,158.4726,272.8416,154.7664,277.47,163.46" style="stroke:#2E8B57;stroke-width:1.0;"/><text fill="#000000" font-family="sans-serif" font-size="13" lengthAdjust="spacing" textLength="28" x="275.5" y="111.0283">uses</text></g><!--link DataLoaderService to VectorStore--><g id="link_DataLoaderService_VectorStore"><path codeLine="34" d="M233.21,66.2 C206.06,88.28 172.615,115.4644 141.025,141.1544 " fill="none" id="DataLoaderService-to-VectorStore" style="stroke:#2E8B57;stroke-width:1.0;"/><polygon fill="#2E8B57" points="136.37,144.94,145.8763,142.3649,140.2492,141.7853,140.8288,136.1582,136.37,144.94" style="stroke:#2E8B57;stroke-width:1.0;"/><text fill="#000000" font-family="sans-serif" font-size="13" lengthAdjust="spacing" textLength="28" x="197.5" y="111.0283">uses</text></g><!--link PagePdfDocumentReader to DocumentReader--><g id="link_PagePdfDocumentReader_DocumentReader"><path codeLine="35" d="M279.5,222.57 C279.5,254.62 279.5,288.32 279.5,320.39 " fill="none" id="PagePdfDocumentReader-to-DocumentReader" style="stroke:#2E8B57;stroke-width:1.0;"/><polygon fill="none" points="279.5,338.39,285.5,320.39,273.5,320.39,279.5,338.39" style="stroke:#2E8B57;stroke-width:1.0;"/><text fill="#000000" font-family="sans-serif" font-size="13" lengthAdjust="spacing" textLength="67" x="280.5" y="286.0283">implements</text></g><!--reverse link VectorStore to RedisVectorStore--><g id="link_VectorStore_RedisVectorStore"><path codeLine="36" d="M78.5,259.27 C78.5,283.68 78.5,295.38 78.5,319.78 " fill="none" id="VectorStore-backto-RedisVectorStore" style="stroke:#2E8B57;stroke-width:1.0;"/><polygon fill="none" points="78.5,241.27,72.5,259.27,84.5,259.27,78.5,241.27" style="stroke:#2E8B57;stroke-width:1.0;"/><text fill="#000000" font-family="sans-serif" font-size="13" lengthAdjust="spacing" textLength="67" x="79.5" y="286.0283">implements</text></g><!--reverse link DocumentWriter to VectorStore--><g id="link_DocumentWriter_VectorStore"><path codeLine="37" d="M78.5,72.2 C78.5,94.28 78.5,119.25 78.5,144.94 " fill="none" id="DocumentWriter-backto-VectorStore" style="stroke:#2E8B57;stroke-width:1.0;"/><polygon fill="#2E8B57" points="78.5,66.2,74.5,75.2,78.5,71.2,82.5,75.2,78.5,66.2" style="stroke:#2E8B57;stroke-width:1.0;"/><text fill="#000000" font-family="sans-serif" font-size="13" lengthAdjust="spacing" textLength="46" x="79.5" y="111.0283">extends</text></g><!--SRC=[fP9DJm8n48Rl_HLDEAWnwrwH0ub0eWSF118z3-rqQUXNsbcHgF_TBWkwydNnqAITUUQTToQzMXA5D2ZBOC1HRSsTyBOK1b8gf8OgWcLBBP6Z3RJXG1JreYPCBAsq2v3p_0cSN4TDX8uhC0axkN6ZDF9HOXnxuoDV612h3Z3ApohwsiastrDA2UoNFTLNzmewvDOK_s3y8KQ_RkavmcD4TEoS3ljYh2sS0C6pXsnaZl5D2soa-At9eUkRZ6b761Na-CIBsgAZ6JPqYrL8MwhLcaA5KwakWRzoBoZ8nta-kvOW18Q6odU91WdRUz9M6yYBtEInebYUiVMQYNst7wczinbAdVxNyNXHHJ4yFVA0rob_XTCL7HSxxlJQYk9po0zrjGq6cq1YHoCLTMXA_kXt-4DqUB2v0SVt_5LbOjy0]--></g></svg>