<?xml version="1.0" encoding="us-ascii" standalone="no"?><svg xmlns="http://www.w3.org/2000/svg" xmlns:xlink="http://www.w3.org/1999/xlink" contentStyleType="text/css" height="384px" preserveAspectRatio="none" style="width:866px;height:384px;" version="1.1" viewBox="0 0 866 384" width="866px" zoomAndPan="magnify"><defs><linearGradient id="g2ov3l0m8hk8l0" x1="0%" x2="100%" y1="0%" y2="100%"><stop offset="0%" stop-color="#FFFCE8"/><stop offset="100%" stop-color="#F8F9FA"/></linearGradient></defs><g><rect fill="url(#g2ov3l0m8hk8l0)" height="384" style="stroke:none;stroke-width:1.0;" width="866" x="0" y="0"/><!--class DataRetrievalService--><g id="elem_DataRetrievalService"><rect codeLine="10" fill="#FFFCE8" height="58.6211" id="DataRetrievalService" rx="2.5" ry="2.5" style="stroke:#000000;stroke-width:0.5;" width="296" x="96" y="172"/><ellipse cx="173.25" cy="188" fill="#ADD1B2" rx="11" ry="11" style="stroke:#181818;stroke-width:1.0;"/><path d="M176.0156,183.875 Q176.1719,183.6563 176.3594,183.5469 Q176.5469,183.4375 176.7656,183.4375 Q177.1406,183.4375 177.375,183.7031 Q177.6094,183.9531 177.6094,184.5625 L177.6094,186.0156 Q177.6094,186.625 177.375,186.8906 Q177.1406,187.1563 176.7656,187.1563 Q176.4219,187.1563 176.2188,186.9531 Q176.0156,186.7656 175.9063,186.25 Q175.8594,185.8906 175.6719,185.7031 Q175.3438,185.3281 174.7344,185.1094 Q174.125,184.8906 173.5,184.8906 Q172.7344,184.8906 172.0938,185.2188 Q171.4688,185.5469 170.9688,186.2969 Q170.4844,187.0469 170.4844,188.0781 L170.4844,189.1719 Q170.4844,190.4063 171.375,191.2344 Q172.2656,192.0469 173.8594,192.0469 Q174.7969,192.0469 175.4531,191.7969 Q175.8438,191.6406 176.2656,191.2031 Q176.5313,190.9375 176.6719,190.8594 Q176.8281,190.7813 177.0313,190.7813 Q177.3594,190.7813 177.6094,191.0469 Q177.875,191.2969 177.875,191.6406 Q177.875,191.9844 177.5313,192.3906 Q177.0313,192.9688 176.2344,193.2969 Q175.1563,193.75 173.8594,193.75 Q172.3438,193.75 171.1406,193.125 Q170.1563,192.625 169.4688,191.5625 Q168.7813,190.4844 168.7813,189.2031 L168.7813,188.0469 Q168.7813,186.7188 169.3906,185.5781 Q170.0156,184.4219 171.1094,183.8125 Q172.2031,183.1875 173.4375,183.1875 Q174.1719,183.1875 174.8125,183.3594 Q175.4688,183.5156 176.0156,183.875 Z " fill="#000000"/><text fill="#000000" font-family="sans-serif" font-size="14" lengthAdjust="spacing" textLength="133" x="193.75" y="193.7969">DataRetrievalService</text><line style="stroke:#000000;stroke-width:0.5;" x1="97" x2="391" y1="204" y2="204"/><ellipse cx="107" cy="218.8105" fill="#84BE84" rx="3" ry="3" style="stroke:#038048;stroke-width:1.0;"/><text fill="#000000" font-family="sans-serif" font-size="14" lengthAdjust="spacing" textLength="270" x="116" y="223.1074">searchData(String query)::List&lt;Document&gt;</text></g><!--class VectorStore--><g id="elem_VectorStore"><rect codeLine="13" fill="#FFFCE8" height="58.6211" id="VectorStore" rx="2.5" ry="2.5" style="stroke:#000000;stroke-width:0.5;" width="318" x="138" y="16"/><ellipse cx="255.25" cy="32" fill="#ADD1B2" rx="11" ry="11" style="stroke:#181818;stroke-width:1.0;"/><path d="M258.0156,27.875 Q258.1719,27.6563 258.3594,27.5469 Q258.5469,27.4375 258.7656,27.4375 Q259.1406,27.4375 259.375,27.7031 Q259.6094,27.9531 259.6094,28.5625 L259.6094,30.0156 Q259.6094,30.625 259.375,30.8906 Q259.1406,31.1563 258.7656,31.1563 Q258.4219,31.1563 258.2188,30.9531 Q258.0156,30.7656 257.9063,30.25 Q257.8594,29.8906 257.6719,29.7031 Q257.3438,29.3281 256.7344,29.1094 Q256.125,28.8906 255.5,28.8906 Q254.7344,28.8906 254.0938,29.2188 Q253.4688,29.5469 252.9688,30.2969 Q252.4844,31.0469 252.4844,32.0781 L252.4844,33.1719 Q252.4844,34.4063 253.375,35.2344 Q254.2656,36.0469 255.8594,36.0469 Q256.7969,36.0469 257.4531,35.7969 Q257.8438,35.6406 258.2656,35.2031 Q258.5313,34.9375 258.6719,34.8594 Q258.8281,34.7813 259.0313,34.7813 Q259.3594,34.7813 259.6094,35.0469 Q259.875,35.2969 259.875,35.6406 Q259.875,35.9844 259.5313,36.3906 Q259.0313,36.9688 258.2344,37.2969 Q257.1563,37.75 255.8594,37.75 Q254.3438,37.75 253.1406,37.125 Q252.1563,36.625 251.4688,35.5625 Q250.7813,34.4844 250.7813,33.2031 L250.7813,32.0469 Q250.7813,30.7188 251.3906,29.5781 Q252.0156,28.4219 253.1094,27.8125 Q254.2031,27.1875 255.4375,27.1875 Q256.1719,27.1875 256.8125,27.3594 Q257.4688,27.5156 258.0156,27.875 Z " fill="#000000"/><text fill="#000000" font-family="sans-serif" font-size="14" lengthAdjust="spacing" textLength="75" x="275.75" y="37.7969">VectorStore</text><line style="stroke:#000000;stroke-width:0.5;" x1="139" x2="455" y1="48" y2="48"/><ellipse cx="149" cy="62.8105" fill="#84BE84" rx="3" ry="3" style="stroke:#038048;stroke-width:1.0;"/><text fill="#000000" font-family="sans-serif" font-size="14" lengthAdjust="spacing" textLength="292" x="158" y="67.1074">similaritySearch(String query):List&lt;Document&gt;</text></g><!--class ChatModel--><g id="elem_ChatModel"><rect codeLine="16" fill="#FFFCE8" height="58.6211" id="ChatModel" rx="2.5" ry="2.5" style="stroke:#000000;stroke-width:0.5;" width="197" x="258.5" y="319"/><ellipse cx="318.25" cy="335" fill="#B4A7E5" rx="11" ry="11" style="stroke:#181818;stroke-width:1.0;"/><path d="M319.2031,331.6406 L319.2031,338.2969 L320.9219,338.2969 Q321.5313,338.2969 321.7969,338.5313 Q322.0625,338.7656 322.0625,339.1563 Q322.0625,339.5313 321.7969,339.7656 Q321.5313,340 320.9219,340 L315.7813,340 Q315.1719,340 314.9063,339.7656 Q314.6406,339.5313 314.6406,339.1406 Q314.6406,338.7656 314.9063,338.5313 Q315.1719,338.2969 315.7813,338.2969 L317.5,338.2969 L317.5,331.6406 L315.7813,331.6406 Q315.1719,331.6406 314.9063,331.4063 Q314.6406,331.1719 314.6406,330.7813 Q314.6406,330.4063 314.9063,330.1719 Q315.1719,329.9375 315.7813,329.9375 L320.9219,329.9375 Q321.5313,329.9375 321.7969,330.1719 Q322.0625,330.4063 322.0625,330.7813 Q322.0625,331.1719 321.7969,331.4063 Q321.5313,331.6406 320.9219,331.6406 L319.2031,331.6406 Z " fill="#000000"/><text fill="#000000" font-family="sans-serif" font-size="14" font-style="italic" lengthAdjust="spacing" textLength="69" x="338.75" y="340.7969">ChatModel</text><line style="stroke:#000000;stroke-width:0.5;" x1="259.5" x2="454.5" y1="351" y2="351"/><ellipse cx="269.5" cy="365.8105" fill="#84BE84" rx="3" ry="3" style="stroke:#038048;stroke-width:1.0;"/><text fill="#000000" font-family="sans-serif" font-size="14" lengthAdjust="spacing" textLength="171" x="278.5" y="370.1074">call(String question)::String</text></g><!--class ChatBotService--><g id="elem_ChatBotService"><rect codeLine="19" fill="#FFFCE8" height="77.2422" id="ChatBotService" rx="2.5" ry="2.5" style="stroke:#000000;stroke-width:0.5;" width="402" x="457" y="163"/><ellipse cx="604.75" cy="179" fill="#ADD1B2" rx="11" ry="11" style="stroke:#181818;stroke-width:1.0;"/><path d="M607.5156,174.875 Q607.6719,174.6563 607.8594,174.5469 Q608.0469,174.4375 608.2656,174.4375 Q608.6406,174.4375 608.875,174.7031 Q609.1094,174.9531 609.1094,175.5625 L609.1094,177.0156 Q609.1094,177.625 608.875,177.8906 Q608.6406,178.1563 608.2656,178.1563 Q607.9219,178.1563 607.7188,177.9531 Q607.5156,177.7656 607.4063,177.25 Q607.3594,176.8906 607.1719,176.7031 Q606.8438,176.3281 606.2344,176.1094 Q605.625,175.8906 605,175.8906 Q604.2344,175.8906 603.5938,176.2188 Q602.9688,176.5469 602.4688,177.2969 Q601.9844,178.0469 601.9844,179.0781 L601.9844,180.1719 Q601.9844,181.4063 602.875,182.2344 Q603.7656,183.0469 605.3594,183.0469 Q606.2969,183.0469 606.9531,182.7969 Q607.3438,182.6406 607.7656,182.2031 Q608.0313,181.9375 608.1719,181.8594 Q608.3281,181.7813 608.5313,181.7813 Q608.8594,181.7813 609.1094,182.0469 Q609.375,182.2969 609.375,182.6406 Q609.375,182.9844 609.0313,183.3906 Q608.5313,183.9688 607.7344,184.2969 Q606.6563,184.75 605.3594,184.75 Q603.8438,184.75 602.6406,184.125 Q601.6563,183.625 600.9688,182.5625 Q600.2813,181.4844 600.2813,180.2031 L600.2813,179.0469 Q600.2813,177.7188 600.8906,176.5781 Q601.5156,175.4219 602.6094,174.8125 Q603.7031,174.1875 604.9375,174.1875 Q605.6719,174.1875 606.3125,174.3594 Q606.9688,174.5156 607.5156,174.875 Z " fill="#000000"/><text fill="#000000" font-family="sans-serif" font-size="14" lengthAdjust="spacing" textLength="98" x="625.25" y="184.7969">ChatBotService</text><line style="stroke:#000000;stroke-width:0.5;" x1="458" x2="858" y1="195" y2="195"/><ellipse cx="468" cy="209.8105" fill="#84BE84" rx="3" ry="3" style="stroke:#038048;stroke-width:1.0;"/><text fill="#000000" font-family="sans-serif" font-size="14" lengthAdjust="spacing" textLength="159" x="477" y="214.1074">chat(String query)::String</text><rect fill="#F24D5C" height="6" style="stroke:#C82930;stroke-width:1.0;" width="6" x="465" y="225.4316"/><text fill="#000000" font-family="sans-serif" font-size="14" lengthAdjust="spacing" textLength="376" x="477" y="232.7285">createPrompt(String query, List&lt;Document&gt; context)::String</text></g><!--class Document--><g id="elem_Document"><rect codeLine="23" fill="#FFFCE8" height="40" id="Document" rx="2.5" ry="2.5" style="stroke:#000000;stroke-width:0.5;" width="96" x="7" y="25.5"/><ellipse cx="22" cy="41.5" fill="#ADD1B2" rx="11" ry="11" style="stroke:#181818;stroke-width:1.0;"/><path d="M24.7656,37.375 Q24.9219,37.1563 25.1094,37.0469 Q25.2969,36.9375 25.5156,36.9375 Q25.8906,36.9375 26.125,37.2031 Q26.3594,37.4531 26.3594,38.0625 L26.3594,39.5156 Q26.3594,40.125 26.125,40.3906 Q25.8906,40.6563 25.5156,40.6563 Q25.1719,40.6563 24.9688,40.4531 Q24.7656,40.2656 24.6563,39.75 Q24.6094,39.3906 24.4219,39.2031 Q24.0938,38.8281 23.4844,38.6094 Q22.875,38.3906 22.25,38.3906 Q21.4844,38.3906 20.8438,38.7188 Q20.2188,39.0469 19.7188,39.7969 Q19.2344,40.5469 19.2344,41.5781 L19.2344,42.6719 Q19.2344,43.9063 20.125,44.7344 Q21.0156,45.5469 22.6094,45.5469 Q23.5469,45.5469 24.2031,45.2969 Q24.5938,45.1406 25.0156,44.7031 Q25.2813,44.4375 25.4219,44.3594 Q25.5781,44.2813 25.7813,44.2813 Q26.1094,44.2813 26.3594,44.5469 Q26.625,44.7969 26.625,45.1406 Q26.625,45.4844 26.2813,45.8906 Q25.7813,46.4688 24.9844,46.7969 Q23.9063,47.25 22.6094,47.25 Q21.0938,47.25 19.8906,46.625 Q18.9063,46.125 18.2188,45.0625 Q17.5313,43.9844 17.5313,42.7031 L17.5313,41.5469 Q17.5313,40.2188 18.1406,39.0781 Q18.7656,37.9219 19.8594,37.3125 Q20.9531,36.6875 22.1875,36.6875 Q22.9219,36.6875 23.5625,36.8594 Q24.2188,37.0156 24.7656,37.375 Z " fill="#000000"/><text fill="#000000" font-family="sans-serif" font-size="14" lengthAdjust="spacing" textLength="64" x="36" y="47.2969">Document</text><line style="stroke:#000000;stroke-width:0.5;" x1="8" x2="102" y1="57.5" y2="57.5"/></g><!--class PromptTemplate--><g id="elem_PromptTemplate"><rect codeLine="25" fill="#FFFCE8" height="77.2422" id="PromptTemplate" rx="2.5" ry="2.5" style="stroke:#000000;stroke-width:0.5;" width="227" x="544.5" y="7"/><ellipse cx="601.75" cy="23" fill="#ADD1B2" rx="11" ry="11" style="stroke:#181818;stroke-width:1.0;"/><path d="M604.5156,18.875 Q604.6719,18.6563 604.8594,18.5469 Q605.0469,18.4375 605.2656,18.4375 Q605.6406,18.4375 605.875,18.7031 Q606.1094,18.9531 606.1094,19.5625 L606.1094,21.0156 Q606.1094,21.625 605.875,21.8906 Q605.6406,22.1563 605.2656,22.1563 Q604.9219,22.1563 604.7188,21.9531 Q604.5156,21.7656 604.4063,21.25 Q604.3594,20.8906 604.1719,20.7031 Q603.8438,20.3281 603.2344,20.1094 Q602.625,19.8906 602,19.8906 Q601.2344,19.8906 600.5938,20.2188 Q599.9688,20.5469 599.4688,21.2969 Q598.9844,22.0469 598.9844,23.0781 L598.9844,24.1719 Q598.9844,25.4063 599.875,26.2344 Q600.7656,27.0469 602.3594,27.0469 Q603.2969,27.0469 603.9531,26.7969 Q604.3438,26.6406 604.7656,26.2031 Q605.0313,25.9375 605.1719,25.8594 Q605.3281,25.7813 605.5313,25.7813 Q605.8594,25.7813 606.1094,26.0469 Q606.375,26.2969 606.375,26.6406 Q606.375,26.9844 606.0313,27.3906 Q605.5313,27.9688 604.7344,28.2969 Q603.6563,28.75 602.3594,28.75 Q600.8438,28.75 599.6406,28.125 Q598.6563,27.625 597.9688,26.5625 Q597.2813,25.4844 597.2813,24.2031 L597.2813,23.0469 Q597.2813,21.7188 597.8906,20.5781 Q598.5156,19.4219 599.6094,18.8125 Q600.7031,18.1875 601.9375,18.1875 Q602.6719,18.1875 603.3125,18.3594 Q603.9688,18.5156 604.5156,18.875 Z " fill="#000000"/><text fill="#000000" font-family="sans-serif" font-size="14" lengthAdjust="spacing" textLength="104" x="622.25" y="28.7969">PromptTemplate</text><line style="stroke:#000000;stroke-width:0.5;" x1="545.5" x2="770.5" y1="39" y2="39"/><ellipse cx="555.5" cy="53.8105" fill="#84BE84" rx="3" ry="3" style="stroke:#038048;stroke-width:1.0;"/><text fill="#000000" font-family="sans-serif" font-size="14" lengthAdjust="spacing" textLength="201" x="564.5" y="58.1074">add(String name, Object value )</text><ellipse cx="555.5" cy="72.4316" fill="#84BE84" rx="3" ry="3" style="stroke:#038048;stroke-width:1.0;"/><text fill="#000000" font-family="sans-serif" font-size="14" lengthAdjust="spacing" textLength="97" x="564.5" y="76.7285">render()::String</text></g><!--class OpenAiChatModel--><g id="elem_OpenAiChatModel"><rect codeLine="29" fill="#FFFCE8" height="58.6211" id="OpenAiChatModel" rx="2.5" ry="2.5" style="stroke:#000000;stroke-width:0.5;" width="197" x="559.5" y="319"/><ellipse cx="597" cy="335" fill="#ADD1B2" rx="11" ry="11" style="stroke:#181818;stroke-width:1.0;"/><path d="M599.7656,330.875 Q599.9219,330.6563 600.1094,330.5469 Q600.2969,330.4375 600.5156,330.4375 Q600.8906,330.4375 601.125,330.7031 Q601.3594,330.9531 601.3594,331.5625 L601.3594,333.0156 Q601.3594,333.625 601.125,333.8906 Q600.8906,334.1563 600.5156,334.1563 Q600.1719,334.1563 599.9688,333.9531 Q599.7656,333.7656 599.6563,333.25 Q599.6094,332.8906 599.4219,332.7031 Q599.0938,332.3281 598.4844,332.1094 Q597.875,331.8906 597.25,331.8906 Q596.4844,331.8906 595.8438,332.2188 Q595.2188,332.5469 594.7188,333.2969 Q594.2344,334.0469 594.2344,335.0781 L594.2344,336.1719 Q594.2344,337.4063 595.125,338.2344 Q596.0156,339.0469 597.6094,339.0469 Q598.5469,339.0469 599.2031,338.7969 Q599.5938,338.6406 600.0156,338.2031 Q600.2813,337.9375 600.4219,337.8594 Q600.5781,337.7813 600.7813,337.7813 Q601.1094,337.7813 601.3594,338.0469 Q601.625,338.2969 601.625,338.6406 Q601.625,338.9844 601.2813,339.3906 Q600.7813,339.9688 599.9844,340.2969 Q598.9063,340.75 597.6094,340.75 Q596.0938,340.75 594.8906,340.125 Q593.9063,339.625 593.2188,338.5625 Q592.5313,337.4844 592.5313,336.2031 L592.5313,335.0469 Q592.5313,333.7188 593.1406,332.5781 Q593.7656,331.4219 594.8594,330.8125 Q595.9531,330.1875 597.1875,330.1875 Q597.9219,330.1875 598.5625,330.3594 Q599.2188,330.5156 599.7656,330.875 Z " fill="#000000"/><text fill="#000000" font-family="sans-serif" font-size="14" lengthAdjust="spacing" textLength="115" x="616" y="340.7969">OpenAiChatModel</text><line style="stroke:#000000;stroke-width:0.5;" x1="560.5" x2="755.5" y1="351" y2="351"/><ellipse cx="570.5" cy="365.8105" fill="#84BE84" rx="3" ry="3" style="stroke:#038048;stroke-width:1.0;"/><text fill="#000000" font-family="sans-serif" font-size="14" lengthAdjust="spacing" textLength="171" x="579.5" y="370.1074">call(String question)::String</text></g><!--reverse link VectorStore to DataRetrievalService--><g id="link_VectorStore_DataRetrievalService"><path codeLine="32" d="M285.2072,80.7833 C275.7172,108.3533 263.38,144.18 253.88,171.79 " fill="none" id="VectorStore-backto-DataRetrievalService" style="stroke:#2E8B57;stroke-width:1.0;"/><polygon fill="#2E8B57" points="287.16,75.11,280.4485,82.3181,285.5326,79.8378,288.013,84.9219,287.16,75.11" style="stroke:#2E8B57;stroke-width:1.0;"/><text fill="#000000" font-family="sans-serif" font-size="13" lengthAdjust="spacing" textLength="28" x="275" y="129.0283">uses</text></g><!--reverse link Document to DataRetrievalService--><g id="link_Document_DataRetrievalService"><path codeLine="33" d="M83.2016,69.4798 C115.9616,96.1698 170.86,140.9 208.87,171.88 " fill="none" id="Document-backto-DataRetrievalService" style="stroke:#2E8B57;stroke-width:1.0;"/><polygon fill="#2E8B57" points="78.55,65.69,83.001,74.4757,82.4264,68.8481,88.054,68.2735,78.55,65.69" style="stroke:#2E8B57;stroke-width:1.0;"/><text fill="#000000" font-family="sans-serif" font-size="13" lengthAdjust="spacing" textLength="28" x="162" y="129.0283">uses</text></g><!--reverse link DataRetrievalService to ChatBotService--><g id="link_DataRetrievalService_ChatBotService"><path codeLine="34" d="M398,201.5 C419.01,201.5 434.9,201.5 456.71,201.5 " fill="none" id="DataRetrievalService-backto-ChatBotService" style="stroke:#2E8B57;stroke-width:1.0;"/><polygon fill="#2E8B57" points="392,201.5,401,205.5,397,201.5,401,197.5,392,201.5" style="stroke:#2E8B57;stroke-width:1.0;"/><text fill="#000000" font-family="sans-serif" font-size="13" lengthAdjust="spacing" textLength="28" x="410.5" y="194.5283">uses</text></g><!--link ChatBotService to OpenAiChatModel--><g id="link_ChatBotService_OpenAiChatModel"><path codeLine="35" d="M658,240.22 C658,264.72 658,290.17 658,312.67 " fill="none" id="ChatBotService-to-OpenAiChatModel" style="stroke:#2E8B57;stroke-width:1.0;"/><polygon fill="#2E8B57" points="658,318.67,662,309.67,658,313.67,654,309.67,658,318.67" style="stroke:#2E8B57;stroke-width:1.0;"/><text fill="#000000" font-family="sans-serif" font-size="13" lengthAdjust="spacing" textLength="28" x="659" y="285.0283">uses</text></g><!--reverse link PromptTemplate to ChatBotService--><g id="link_PromptTemplate_ChatBotService"><path codeLine="36" d="M658,90.17 C658,114.13 658,139.02 658,162.95 " fill="none" id="PromptTemplate-backto-ChatBotService" style="stroke:#2E8B57;stroke-width:1.0;"/><polygon fill="#2E8B57" points="658,84.17,654,93.17,658,89.17,662,93.17,658,84.17" style="stroke:#2E8B57;stroke-width:1.0;"/><text fill="#000000" font-family="sans-serif" font-size="13" lengthAdjust="spacing" textLength="28" x="659" y="129.0283">uses</text></g><!--reverse link ChatModel to OpenAiChatModel--><g id="link_ChatModel_OpenAiChatModel"><path codeLine="37" d="M473.56,348.5 C506.91,348.5 526.13,348.5 559.48,348.5 " fill="none" id="ChatModel-backto-OpenAiChatModel" style="stroke:#2E8B57;stroke-width:1.0;"/><polygon fill="none" points="455.56,348.5,473.56,354.5,473.56,342.5,455.56,348.5" style="stroke:#2E8B57;stroke-width:1.0;"/><text fill="#000000" font-family="sans-serif" font-size="13" lengthAdjust="spacing" textLength="67" x="474" y="341.5283">implements</text></g><!--reverse link Document to VectorStore--><g id="link_Document_VectorStore"><path codeLine="38" d="M109.21,45.5 C120.69,45.5 126.17,45.5 137.65,45.5 " fill="none" id="Document-backto-VectorStore" style="stroke:#2E8B57;stroke-width:1.0;"/><polygon fill="#2E8B57" points="103.21,45.5,112.21,49.5,108.21,45.5,112.21,41.5,103.21,45.5" style="stroke:#2E8B57;stroke-width:1.0;"/></g><!--SRC=[bLB1Rjim3BtxAmJqq1Qfbsjd306Q5DWE6phCm-wCH2LQPScZw6R1jdyV7JMfusG3Ul31udkFZu-yN3EtgPfEMm-1kyQ_qR6PQWyfbSR1Yg0friwWmgRbhG9cSikECHNfqOKMfAu-G30RSimOb0MVS51Rz4hpI0Pf4NqajVIW7mU0kVokA7R1vFg5jLRZxVJ2tjgt5WR8dIdrgr1tH76JqJN2Uq8CnRzqYZz5vjq3mnSKz_W4laPwSXfxCQKc2O7qkWTSrG88A_MZGzfULzL7b_ZTVTHTWu5d1wrlg3bIBL-Mc2JNE0yImRRUQOrqJcHSO2GBuc2n1luK3VeifC7x0JcnYq5yv9T3_vuqZpoSOgBbRMp_cQPKgGc1yJD5sU8HwaOTcrCwYhUVVDfq3v5s-wUizrLEmujwzW76x1i4QF16FIo_IrnAKkzGNVSGmY3dS7NQug75SETU6SdPnPPTMyw6Uwgw93Vx7-n-l0mS9LnwjDo3pl3F4qpS126C9ZgFtVK_pZ83ntba6xzdBrTJAIS4x8sdOdYM1yVFOnL_0G00]--></g></svg>